<?xml version="1.0" encoding="iso-8859-1"?>
<!-- Generator: Adobe Illustrator 19.0.0, SVG Export Plug-In . SVG Version: 6.00 Build 0)  -->
<svg version="1.1" id="Layer_1" xmlns="http://www.w3.org/2000/svg" xmlns:xlink="http://www.w3.org/1999/xlink" x="0px" y="0px"
	 viewBox="0 0 512.003 512.003" style="enable-background:new 0 0 512.003 512.003;" xml:space="preserve">
<g>
	<polygon style="fill:#668DBF;" points="8.256,167.804 256.003,487.229 195.443,145.782 	"/>
	<polygon style="fill:#668DBF;" points="503.752,167.804 316.564,145.782 256.003,487.23 	"/>
</g>
<g>
	<polygon style="fill:#A0C9FF;" points="167.728,145.783 256.003,487.229 344.279,145.783 	"/>
	<polygon style="fill:#A0C9FF;" points="90.839,24.767 90.839,79.822 173.421,167.804 256.004,79.822 256.004,24.767 	"/>
	<polygon style="fill:#A0C9FF;" points="256.004,24.767 256.004,79.822 338.587,167.804 421.169,79.822 421.169,24.767 	"/>
</g>
<g>
	<polygon style="fill:#CFE4FF;" points="8.256,167.804 173.421,167.804 90.839,24.767 	"/>
	<polygon style="fill:#CFE4FF;" points="256.004,24.767 173.421,167.804 338.587,167.804 	"/>
	<polygon style="fill:#CFE4FF;" points="503.752,167.804 421.169,24.767 338.587,167.804 	"/>
</g>
<path d="M510.848,172.014c0.017-0.029,0.037-0.053,0.054-0.081c0.026-0.046,0.044-0.095,0.069-0.141
	c0.13-0.236,0.248-0.473,0.353-0.717c0.03-0.068,0.061-0.137,0.088-0.205c0.248-0.62,0.417-1.26,0.509-1.908
	c0.011-0.081,0.019-0.163,0.027-0.244c0.028-0.249,0.044-0.498,0.048-0.748c0.002-0.087,0.006-0.174,0.004-0.262
	c-0.004-0.32-0.021-0.64-0.062-0.956c-0.004-0.032-0.012-0.063-0.017-0.094c-0.041-0.288-0.098-0.574-0.168-0.857
	c-0.023-0.09-0.048-0.179-0.075-0.27c-0.07-0.248-0.153-0.491-0.247-0.732c-0.025-0.066-0.048-0.133-0.076-0.199
	c-0.13-0.309-0.277-0.613-0.446-0.907c-0.003-0.006-0.006-0.012-0.009-0.019L428.321,20.638c-0.012-0.021-0.029-0.04-0.041-0.061
	c-0.171-0.29-0.356-0.57-0.562-0.839c-0.014-0.018-0.03-0.034-0.044-0.052c-0.187-0.239-0.39-0.467-0.605-0.687
	c-0.059-0.061-0.12-0.119-0.182-0.178c-0.181-0.174-0.371-0.339-0.57-0.499c-0.067-0.054-0.132-0.109-0.202-0.161
	c-0.26-0.195-0.53-0.38-0.818-0.546c-0.287-0.165-0.581-0.306-0.879-0.434c-0.083-0.035-0.168-0.066-0.252-0.098
	c-0.231-0.09-0.465-0.171-0.7-0.239c-0.086-0.025-0.172-0.05-0.259-0.073c-0.291-0.075-0.582-0.134-0.876-0.176
	c-0.029-0.004-0.056-0.011-0.086-0.015c-0.334-0.044-0.668-0.064-1.003-0.066c-0.025,0-0.05-0.004-0.074-0.004H90.839
	c-0.025,0-0.05,0.004-0.075,0.006c-0.335,0.002-0.669,0.023-1.004,0.067c-0.025,0.003-0.05,0.01-0.075,0.013
	c-0.297,0.042-0.593,0.104-0.889,0.178c-0.085,0.022-0.167,0.046-0.251,0.07c-0.239,0.069-0.475,0.151-0.71,0.242
	c-0.081,0.032-0.164,0.061-0.246,0.096c-0.298,0.128-0.592,0.269-0.881,0.435s-0.558,0.351-0.819,0.546
	c-0.068,0.051-0.132,0.106-0.199,0.16c-0.2,0.16-0.392,0.327-0.575,0.502c-0.059,0.057-0.12,0.115-0.178,0.174
	c-0.217,0.221-0.423,0.451-0.611,0.694c-0.012,0.015-0.026,0.03-0.039,0.046c-0.207,0.27-0.393,0.552-0.564,0.842
	c-0.012,0.021-0.028,0.039-0.04,0.059L1.101,163.678c-0.003,0.006-0.006,0.011-0.009,0.018c-0.17,0.295-0.317,0.599-0.448,0.911
	c-0.026,0.064-0.048,0.129-0.074,0.193c-0.095,0.243-0.178,0.49-0.25,0.74c-0.025,0.088-0.051,0.175-0.073,0.264
	c-0.072,0.286-0.13,0.575-0.171,0.865c-0.004,0.029-0.011,0.057-0.015,0.086c-0.041,0.318-0.058,0.638-0.062,0.959
	c-0.001,0.087,0.003,0.173,0.004,0.259c0.004,0.25,0.021,0.499,0.048,0.749c0.009,0.081,0.017,0.164,0.028,0.246
	c0.091,0.646,0.26,1.286,0.508,1.905c0.029,0.072,0.061,0.141,0.091,0.213c0.104,0.24,0.22,0.475,0.348,0.707
	c0.026,0.048,0.045,0.099,0.073,0.146c0.018,0.03,0.04,0.055,0.056,0.085c0.156,0.262,0.326,0.519,0.514,0.767
	c0.017,0.022,0.031,0.046,0.047,0.068c0.003,0.004,0.006,0.008,0.009,0.012l247.748,319.426c0.113,0.145,0.24,0.277,0.361,0.414
	c0.062,0.069,0.118,0.142,0.182,0.208c0.273,0.287,0.564,0.553,0.872,0.795c0.067,0.053,0.138,0.098,0.206,0.149
	c0.26,0.193,0.53,0.368,0.809,0.527c0.092,0.053,0.184,0.107,0.28,0.157c0.349,0.182,0.707,0.346,1.079,0.476
	c0.052,0.019,0.107,0.03,0.16,0.047c0.334,0.11,0.674,0.195,1.021,0.262c0.109,0.021,0.217,0.041,0.327,0.057
	c0.405,0.061,0.814,0.103,1.229,0.103c0.415,0,0.825-0.042,1.229-0.103c0.11-0.017,0.218-0.036,0.327-0.057
	c0.347-0.067,0.689-0.152,1.023-0.262c0.052-0.018,0.107-0.029,0.157-0.046c0.372-0.131,0.731-0.294,1.08-0.477
	c0.094-0.05,0.184-0.102,0.276-0.155c0.281-0.161,0.553-0.338,0.814-0.531c0.067-0.05,0.137-0.095,0.203-0.146
	c0.309-0.243,0.6-0.51,0.874-0.797c0.062-0.065,0.118-0.137,0.177-0.204c0.123-0.138,0.25-0.271,0.364-0.417L510.273,172.87
	c0.003-0.004,0.007-0.01,0.011-0.015c0.011-0.015,0.021-0.032,0.033-0.046C510.515,172.548,510.689,172.283,510.848,172.014z
	 M313.345,265.434c-4.412-1.139-8.92,1.513-10.063,5.929l-47.278,182.873l-66.046-255.462c-1.142-4.417-5.649-7.066-10.063-5.929
	c-4.415,1.142-7.069,5.648-5.928,10.063l64.017,247.613L25.112,176.062H338.57c0.006,0,0.011,0.001,0.017,0.001
	s0.011-0.001,0.017-0.001h148.292L274.025,450.52l45.25-175.023C320.415,271.081,317.76,266.576,313.345,265.434z M324.282,159.545
	H187.725l68.279-118.262L324.282,159.545z M270.307,33.026h136.557l-68.279,118.263L270.307,33.026z M352.89,159.545l68.278-118.262
	l68.279,118.262H352.89z M90.839,41.283l16.003,27.718c1.529,2.649,4.305,4.13,7.159,4.13c1.401,0,2.821-0.357,4.121-1.108
	c3.95-2.28,5.303-7.331,3.023-11.281l-16.003-27.717H241.7L173.42,151.287L140.219,93.78c-2.28-3.95-7.331-5.302-11.281-3.023
	c-3.95,2.28-5.303,7.331-3.023,11.281l33.201,57.507H22.56L90.839,41.283z"/>
<path d="M327.814,242.465l10.228-39.561c1.141-4.415-1.513-8.921-5.929-10.063c-4.422-1.136-8.922,1.514-10.063,5.929
	l-10.228,39.561c-1.141,4.415,1.513,8.921,5.929,10.063c0.694,0.178,1.388,0.264,2.072,0.264
	C323.497,248.659,326.851,246.187,327.814,242.465z"/>
<g>
</g>
<g>
</g>
<g>
</g>
<g>
</g>
<g>
</g>
<g>
</g>
<g>
</g>
<g>
</g>
<g>
</g>
<g>
</g>
<g>
</g>
<g>
</g>
<g>
</g>
<g>
</g>
<g>
</g>
</svg>
