<?xml version="1.0" encoding="iso-8859-1"?>
<!-- Generator: Adobe Illustrator 19.0.0, SVG Export Plug-In . SVG Version: 6.00 Build 0)  -->
<svg version="1.1" id="Capa_1" xmlns="http://www.w3.org/2000/svg" xmlns:xlink="http://www.w3.org/1999/xlink" x="0px" y="0px"
	 viewBox="0 0 512 512" style="enable-background:new 0 0 512 512;" xml:space="preserve">
<circle style="fill:#F7C2AD;" cx="60.28" cy="290.939" r="52.783"/>
<path style="opacity:0.2;fill:#E86478;enable-background:new    ;" d="M60.285,324.073c-22.214,0.001-39.396-21.971-30.945-45.329
	c0.193-0.534,0.417-1.063,0.666-1.574c5.992-12.284,17.583-19.364,30.264-19.369c0.003,0,0.008,0,0.011,0
	c22.225,0,39.411,21.991,30.934,45.359c-0.194,0.534-0.418,1.064-0.668,1.574c-5.998,12.266-17.58,19.334-30.251,19.34l0,0
	C60.293,324.073,60.288,324.073,60.285,324.073z M60.282,272.8H59.81c-2.446,0-4.883,0.498-7.08,1.573
	c-9.877,4.834-13.594,16.276-7.902,26.503c2.868,5.153,8.456,8.197,14.354,8.197h1.109l0,0c6.782-0.003,12.994-3.703,16.334-10.145
	c0.298-0.574,0.552-1.175,0.758-1.789C81.613,284.534,72.291,272.8,60.282,272.8z"/>
<circle style="fill:#F7C2AD;" cx="451.72" cy="290.939" r="52.783"/>
<path style="opacity:0.2;fill:#E86478;enable-background:new    ;" d="M451.715,324.073c-0.004,0-0.007,0-0.011,0l0,0
	c-12.668-0.006-24.248-7.071-30.247-19.332c-0.25-0.51-0.474-1.039-0.668-1.573c-8.487-23.37,8.703-45.368,30.929-45.368
	c0.004,0,0.007,0,0.011,0c12.677,0.006,24.264,7.08,30.258,19.357c0.249,0.51,0.473,1.039,0.666,1.572
	C491.12,302.09,473.932,324.073,451.715,324.073z M451.709,309.073h1.109c5.898,0,11.486-3.043,14.354-8.197
	c5.692-10.227,1.975-21.669-7.902-26.503c-2.197-1.075-4.634-1.573-7.08-1.573h-1.56c-6.082,0-11.773,3.265-14.613,8.644
	c-4.226,8.005-2.757,16.681,2.87,22.311C442.311,307.182,446.865,309.071,451.709,309.073L451.709,309.073z"/>
<path style="opacity:0.1;enable-background:new    ;" d="M399.136,286.315c2.552-29.04,28.163-50.511,57.202-47.959
	c8.541,0.751,16.418,3.508,23.231,7.749v40.668c0,7.566-3.809,13.622-9.207,17.181c-1.499,13.329-4.295,26.283-8.274,38.737l0,0
	c-4.819,0.964-9.85,1.279-14.993,0.827C418.056,340.965,396.584,315.354,399.136,286.315z"/>
<path style="opacity:0.1;enable-background:new    ;" d="M112.864,286.315c-2.553-29.04-28.163-50.511-57.202-47.959
	c-8.541,0.751-16.418,3.508-23.231,7.749v40.668c0,7.566,3.809,13.622,9.207,17.181c1.499,13.329,4.295,26.283,8.274,38.737l0,0
	c4.819,0.964,9.85,1.279,14.993,0.827C93.944,340.965,115.416,315.354,112.864,286.315z"/>
<ellipse style="fill:#F7C2AD;" cx="256" cy="281.249" rx="195.72" ry="188.96"/>
<path style="opacity:0.05;enable-background:new    ;" d="M351.998,80.915c-25.87,0-48.63,13.269-61.879,33.363
	c-11.703-7.741-25.725-12.26-40.807-12.26c-20.475,0-39.01,8.308-52.419,21.735c-12.494-9.608-28.129-15.334-45.108-15.334
	c-40.914,0-74.081,33.167-74.081,74.081s33.167,74.081,74.081,74.081c20.475,0,39.01-8.308,52.419-21.735
	c12.494,9.608,28.129,15.334,45.108,15.334c25.87,0,48.629-13.269,61.879-33.363c11.704,7.741,25.725,12.26,40.808,12.26
	c40.914,0,74.081-33.167,74.081-74.081C426.079,114.082,392.912,80.915,351.998,80.915z"/>
<path style="opacity:0.05;enable-background:new    ;" d="M277.124,449.081c-108.091,0-195.717-84.6-195.717-188.959
	c0-45.664,16.777-87.544,44.704-120.209c-40.377,34.614-65.828,85.1-65.828,141.333c0,104.359,87.625,188.959,195.717,188.959
	c60.795,0,115.116-26.762,151.013-68.75C372.457,431.079,326.971,449.081,277.124,449.081z"/>
<path style="fill:#485458;" d="M341.224,43.94L141.647,85.233c-54.707,11.319-93.943,59.504-93.943,115.37v26.385l0,0v47.608
	c0,15.609,18.368,23.967,30.137,13.714l0,0c11.336-9.876,19.256-23.085,22.626-37.737l5.636-24.5
	c12.588,9.878,28.441,15.786,45.683,15.786c20.475,0,39.01-8.308,52.419-21.735c12.494,9.608,28.129,15.334,45.108,15.334
	c25.87,0,48.629-13.269,61.879-33.363c11.704,7.741,25.725,12.26,40.808,12.26c17.975,0,34.452-6.406,47.281-17.054l12.254,53.273
	c3.37,14.652,11.29,27.861,22.626,37.737l0,0c11.769,10.253,30.137,1.894,30.137-13.714v-130.44
	C464.296,79.298,404.736,30.799,341.224,43.94z"/>
<path style="opacity:0.1;enable-background:new    ;" d="M154.915,82.487l-13.268,2.745c-54.707,11.319-93.943,59.504-93.943,115.37
	v26.385l0,0v47.608c0,15.609,18.368,23.967,30.137,13.714l0,0c0.506-0.44,0.996-0.895,1.488-1.349
	c-6.362-2.628-11.268-8.746-11.268-16.81v-47.608l0,0v-26.385C68.061,142.736,103.94,96.343,154.915,82.487z M454.517,283.865
	L454.517,283.865c-11.336-9.876-19.256-23.085-22.626-37.737l-12.511-55.365c-0.99-4.383-6.517-5.908-9.55-2.592
	c-3.126,3.417-6.509,6.346-10.55,9.128l12.254,53.273c3.37,14.652,11.29,27.861,22.626,37.737l0,0
	c8.004,6.973,19.055,5.332,25.31-1.339C457.742,286.24,456.071,285.219,454.517,283.865z"/>
<path d="M256,309.446c11.43,0,22.299-4.95,29.821-13.583c2.721-3.122,2.396-7.86-0.727-10.581c-3.123-2.722-7.86-2.397-10.582,0.728
	c-4.672,5.361-11.42,8.436-18.512,8.436c-7.092,0-13.84-3.075-18.512-8.436c-2.721-3.124-7.459-3.448-10.582-0.728
	c-3.123,2.721-3.448,7.459-0.727,10.581C233.701,304.496,244.57,309.446,256,309.446z M355.163,290.262v-15.216
	c0-4.143-3.358-7.5-7.5-7.5s-7.5,3.357-7.5,7.5v15.216c0,4.143,3.358,7.5,7.5,7.5S355.163,294.405,355.163,290.262z M471.796,234.1
	v-41.107c0-4.143-3.358-7.5-7.5-7.5s-7.5,3.357-7.5,7.5v81.603c0,4.308-2.341,7.944-6.261,9.729
	c-3.921,1.785-8.201,1.16-11.449-1.67c-10.208-8.893-17.208-20.568-20.244-33.763l-12.254-53.273
	c-0.583-2.537-2.441-4.59-4.907-5.424c-2.466-0.83-5.188-0.327-7.192,1.334c-11.906,9.883-26.997,15.325-42.491,15.325
	c-13.095,0-25.775-3.809-36.67-11.016c-1.661-1.099-3.69-1.493-5.641-1.092c-1.951,0.398-3.663,1.557-4.758,3.219
	c-12.383,18.78-33.174,29.992-55.618,29.992c-14.797,0-28.814-4.765-40.536-13.779c-2.988-2.297-7.216-2.023-9.879,0.645
	c-12.58,12.598-29.311,19.535-47.112,19.535c-15.031,0-29.227-4.905-41.053-14.186c-2.019-1.585-4.709-2.027-7.129-1.171
	c-2.42,0.855-4.235,2.889-4.81,5.39l-5.635,24.499c-0.43,1.87-0.952,3.745-1.551,5.572c-1.29,3.937,0.856,8.173,4.792,9.462
	c3.935,1.288,8.173-0.855,9.462-4.792c0.738-2.255,1.382-4.568,1.914-6.878l3.183-13.838c12.351,7.187,26.27,10.941,40.826,10.941
	c19.672,0,38.28-6.916,53.048-19.597c13.234,8.652,28.485,13.195,44.479,13.195c25.09,0,48.492-11.429,63.919-30.901
	c11.871,6.429,25.138,9.798,38.768,9.798c15.036,0,29.762-4.184,42.487-11.941l9.739,42.342c3.749,16.3,12.397,30.723,25.008,41.71
	c4.06,3.536,8.917,5.615,13.961,6.186c-9.84,91.828-90.398,162.556-187.192,162.556S78.648,391.977,68.806,300.151
	c5.044-0.571,9.901-2.65,13.959-6.185c1.541-1.341,3.052-2.767,4.495-4.236c2.9-2.957,2.854-7.706-0.103-10.606
	c-2.956-2.898-7.705-2.854-10.606,0.103c-1.168,1.191-2.391,2.344-3.637,3.429c-2.824,2.46-6.429,3.25-9.9,2.241
	c-0.044-0.015-0.089-0.026-0.133-0.04c-0.476-0.145-0.949-0.318-1.417-0.531c-3.92-1.784-6.261-5.421-6.261-9.729v-73.993
	c0-25.3,8.797-50.036,24.772-69.654s38.416-33.245,63.19-38.37l199.578-41.293c28.053-5.805,56.884,1.241,79.098,19.33
	c22.214,18.088,34.955,44.892,34.955,73.54v13.069c0,4.143,3.358,7.5,7.5,7.5s7.5-3.357,7.5-7.5v-13.069
	c0-33.179-14.756-64.223-40.483-85.172c-25.729-20.949-59.115-29.11-91.608-22.388L140.127,77.888
	c-28.143,5.823-53.636,21.303-71.783,43.588c-18.147,22.286-28.141,50.387-28.141,79.126v33.497
	C16.251,242.511-0.01,265.101,0,290.961c0.006,16.103,6.283,31.238,17.674,42.62c11.384,11.375,26.515,17.639,42.606,17.639h0.027
	c1.884,0,3.769-0.098,5.645-0.274C95.128,425.313,169.568,477.705,256,477.705s160.872-52.392,190.048-126.759
	c1.876,0.176,3.76,0.274,5.644,0.275h0.025c16.092,0,31.225-6.265,42.609-17.64c11.391-11.382,17.668-26.518,17.674-42.62
	C512.01,265.101,495.748,242.511,471.796,234.1z M60.301,336.219h-0.02c-12.087,0-23.454-4.705-32.005-13.25
	C19.72,314.421,15.005,303.05,15,290.955c-0.007-17.571,9.984-33.135,25.204-40.622v24.262c0,9.519,5.026,17.954,13.242,22.471
	c1.111,13.491,3.635,26.579,7.409,39.139C60.67,336.208,60.486,336.219,60.301,336.219z M483.724,322.969
	c-8.552,8.546-19.917,13.251-32.005,13.251H451.7c-0.185,0-0.37-0.012-0.554-0.014c3.774-12.561,6.298-25.648,7.409-39.14
	c8.217-4.517,13.242-12.952,13.242-22.471v-24.262c15.22,7.487,25.211,23.051,25.204,40.622
	C496.995,303.05,492.28,314.421,483.724,322.969z M171.837,290.262v-15.216c0-4.143-3.358-7.5-7.5-7.5s-7.5,3.357-7.5,7.5v15.216
	c0,4.143,3.358,7.5,7.5,7.5S171.837,294.405,171.837,290.262z"/>
<g>
</g>
<g>
</g>
<g>
</g>
<g>
</g>
<g>
</g>
<g>
</g>
<g>
</g>
<g>
</g>
<g>
</g>
<g>
</g>
<g>
</g>
<g>
</g>
<g>
</g>
<g>
</g>
<g>
</g>
</svg>
