<?xml version="1.0" encoding="iso-8859-1"?>
<!-- Generator: Adobe Illustrator 19.0.0, SVG Export Plug-In . SVG Version: 6.00 Build 0)  -->
<svg version="1.1" id="Capa_1" xmlns="http://www.w3.org/2000/svg" xmlns:xlink="http://www.w3.org/1999/xlink" x="0px" y="0px"
	 viewBox="0 0 448.304 448.304" style="enable-background:new 0 0 448.304 448.304;" xml:space="preserve">
<path style="fill:#7E4E2C;" d="M103.696,440.28c-25.48,0-49.464-9.936-67.52-28c-18.08-18.08-28.032-42.064-28.032-67.56v-52.624
	c0-8.512,4.488-16.2,11.992-20.576l70.144-40.8c2.248-1.656,7-4.112,13.24-4.112c9.656,0,15.672,5.56,18.4,8.856l14.224,17.424
	v-92.84c0-13.232,10.768-24,24-24s24,10.768,24,24V320c0,3.096,1.84,5.784,4.528,7.064l20.44-20.44
	c16.52-16.528,42.584-20.984,63.688-10.92l10.24,4.856L169.6,413.824c-17.88,17.064-41.272,26.456-65.872,26.456
	C103.728,440.28,103.704,440.28,103.696,440.28z"/>
<g>
	<path style="fill:#010101;" d="M284.752,293.712c-0.64-0.64-1.328-1.2-2.064-1.632c-10.368-6.528-22.192-9.824-34.016-9.824
		c-16.368,0-32.72,6.24-45.2,18.72l-11.328,11.312v-152.24c0-17.6-14.4-32-32-32s-32,14.4-32,32v70.4
		c-5.84-7.168-14.64-11.84-24.608-11.84c-6.928,0-13.312,2.272-18.544,6.032L16.08,264.528C6.56,270.08,0.144,280.32,0.144,292.096
		v52.624c0,57.216,46.368,103.584,103.584,103.584c27.712,0,52.816-10.944,71.392-28.672l0.016,0.144l1.776-1.776
		c0.032-0.032,0.064-0.064,0.08-0.08l107.744-107.76C289.296,305.616,289.296,298.256,284.752,293.712z M164.08,408.048
		c-16.4,15.632-37.84,24.24-60.352,24.24c-48.288,0.016-87.584-39.28-87.584-87.568v-52.624c0-5.632,2.992-10.736,8.016-13.664
		l70.144-40.784c1.92-1.376,5.088-3.04,9.216-3.04c6.4,0,10.4,3.728,12.224,5.952l28.4,34.784V160.048c0-8.816,7.184-16,16-16
		s16,7.184,16,16V320c0,6.824,4.312,12.56,10.344,14.824c2.544,0.952,5.416,0.328,7.336-1.592l20.944-20.944
		c9.056-9.056,21.088-14.032,33.888-14.032c7.216,0,14.272,1.6,20.704,4.672L164.08,408.048z"/>
	<rect x="152.144" y="32" style="fill:#010101;" width="16" height="64"/>
	
		<rect x="84.262" y="60.106" transform="matrix(-0.7071 0.7071 -0.7071 -0.7071 222.629 91.9952)" style="fill:#010101;" width="16" height="63.999"/>
	<rect x="32.144" y="152" style="fill:#010101;" width="64" height="16"/>
	
		<rect x="196.016" y="84.119" transform="matrix(-0.7071 0.7071 -0.7071 -0.7071 454.384 -3.9748)" style="fill:#010101;" width="63.999" height="16"/>
	<rect x="224.144" y="152" style="fill:#010101;" width="64" height="16"/>
</g>
<g>
	<path style="fill:#FACE59;" d="M384.16,231.856c30.848,0,55.856-25.008,55.856-55.856s-25.008-55.856-55.856-55.856
		S328.304,145.152,328.304,176S353.312,231.856,384.16,231.856z"/>
	<path style="fill:#FACE59;" d="M320.16,90.448c23.44,0,42.448-19.008,42.448-42.448S343.6,5.552,320.16,5.552
		S277.712,24.56,277.712,48S296.72,90.448,320.16,90.448z"/>
</g>
<g>
	<path style="fill:#010101;" d="M384.16,128c26.464,0,48,21.536,48,48s-21.536,48-48,48s-48-21.536-48-48S357.696,128,384.16,128
		 M384.16,112c-35.344,0-64,28.656-64,64s28.656,64,64,64s64-28.656,64-64S419.504,112,384.16,112z"/>
	<path style="fill:#010101;" d="M320.16,16c17.648,0,32,14.352,32,32s-14.352,32-32,32s-32-14.352-32-32S302.512,16,320.16,16
		 M320.16,0c-26.512,0-48,21.488-48,48s21.488,48,48,48s48-21.488,48-48S346.672,0,320.16,0z"/>
</g>
<g>
</g>
<g>
</g>
<g>
</g>
<g>
</g>
<g>
</g>
<g>
</g>
<g>
</g>
<g>
</g>
<g>
</g>
<g>
</g>
<g>
</g>
<g>
</g>
<g>
</g>
<g>
</g>
<g>
</g>
</svg>
