<?xml version="1.0" encoding="iso-8859-1"?>
<!-- Generator: Adobe Illustrator 19.0.0, SVG Export Plug-In . SVG Version: 6.00 Build 0)  -->
<svg version="1.1" id="Capa_1" xmlns="http://www.w3.org/2000/svg" xmlns:xlink="http://www.w3.org/1999/xlink" x="0px" y="0px"
	 viewBox="0 0 511.999 511.999" style="enable-background:new 0 0 511.999 511.999;" xml:space="preserve">
<path style="fill:#61AFF6;" d="M497.566,128.433L341.469,56.614H170.531L14.432,128.433c-6.026,2.773-8.742,9.844-6.122,15.938
	l31.296,72.782c2.284,5.313,7.979,8.298,13.648,7.156l59.397-11.968v230.816c0,6.753,5.474,12.227,12.227,12.227h262.56
	c6.753,0,12.227-5.474,12.227-12.227V212.458l59.085,11.86c5.667,1.137,11.356-1.848,13.639-7.158l31.299-72.789
	C506.31,138.277,503.592,131.205,497.566,128.433z"/>
<g>
	<path style="fill:#55A2F0;" d="M497.566,128.433l-30.497-14.031l-26.878,66.954c-3.547,8.835-13.039,13.731-22.294,11.498
		l-39.89-9.625c-12.065-2.911-23.675,6.231-23.675,18.642v213.278c0,12.968-10.513,23.481-23.481,23.481h-218.2v4.529
		c0,6.753,5.474,12.227,12.227,12.227h262.56c6.753,0,12.227-5.474,12.227-12.227V212.458l59.085,11.859
		c5.667,1.137,11.356-1.848,13.639-7.158l31.299-72.789C506.31,138.277,503.592,131.205,497.566,128.433z"/>
	<path style="fill:#55A2F0;" d="M341.469,56.614H170.531l-9.709,4.467c15.89,38.828,53.188,63.893,95.177,63.893
		s79.287-25.064,95.177-63.893L341.469,56.614z"/>
</g>
<path style="fill:#2C5871;" d="M341.467,56.614H170.533c13.646,33.811,46.767,57.674,85.467,57.674S327.821,90.425,341.467,56.614z"
	/>
<path style="fill:#1D4859;" d="M255.999,114.288c38.699,0,71.821-23.862,85.467-57.674h-85.467V114.288z"/>
<path d="M500.612,121.814l-65.315-30.05c-3.657-1.683-7.983-0.083-9.664,3.574c-1.682,3.656-0.082,7.982,3.574,9.664l65.315,30.05
	c2.455,1.129,3.542,3.959,2.475,6.441l-31.299,72.789c-0.917,2.134-3.234,3.35-5.513,2.893l-59.086-11.859
	c-2.141-0.429-4.362,0.124-6.051,1.507c-1.69,1.384-2.669,3.452-2.669,5.636v230.699c0,2.725-2.217,4.941-4.942,4.941H124.878
	c-2.725,0-4.942-2.217-4.942-4.941v-34.776c0-4.024-3.262-7.286-7.286-7.286s-7.286,3.262-7.286,7.286v34.776
	c0,10.759,8.753,19.513,19.513,19.513h262.559c10.76,0,19.513-8.753,19.513-19.513V221.351l50.366,10.109
	c8.989,1.802,18.143-3,21.766-11.423l31.299-72.79C514.598,137.445,510.306,126.273,500.612,121.814z"/>
<path d="M105.365,362.902c0,4.024,3.262,7.286,7.286,7.286s7.286-3.262,7.286-7.286V212.341c0-2.185-0.98-4.254-2.67-5.637
	c-1.691-1.385-3.912-1.936-6.054-1.505l-59.398,11.968c-2.278,0.461-4.597-0.758-5.516-2.892l-31.296-72.782
	c-1.067-2.483,0.02-5.312,2.475-6.441l149.419-68.746c16.705,33.813,50.899,55.268,89.103,55.268s72.397-21.455,89.103-55.268
	l43.221,19.885c3.655,1.682,7.983,0.082,9.664-3.574c1.682-3.656,0.082-7.982-3.574-9.664l-49.9-22.958
	c-0.084-0.039-0.172-0.067-0.258-0.102c-0.1-0.042-0.2-0.083-0.302-0.12c-0.166-0.06-0.333-0.111-0.502-0.159
	c-0.102-0.029-0.203-0.06-0.306-0.085c-0.185-0.044-0.373-0.076-0.561-0.105c-0.09-0.014-0.179-0.033-0.27-0.044
	c-0.28-0.033-0.562-0.052-0.846-0.052h-0.002H170.533h-0.002c-0.284,0-0.566,0.02-0.846,0.052c-0.091,0.011-0.18,0.03-0.27,0.044
	c-0.188,0.029-0.376,0.061-0.561,0.105c-0.103,0.024-0.204,0.056-0.306,0.085c-0.169,0.048-0.337,0.099-0.502,0.159
	c-0.102,0.037-0.202,0.078-0.302,0.12c-0.086,0.036-0.174,0.063-0.258,0.102L11.387,121.814c-9.693,4.459-13.986,15.632-9.77,25.435
	l31.296,72.782c3.624,8.43,12.782,13.231,21.779,11.42l50.673-10.21V362.902z M329.901,63.9
	c-14.911,26.5-42.855,43.102-73.901,43.102S197.009,90.4,182.098,63.9C182.098,63.9,329.901,63.9,329.901,63.9z"/>
<g>
</g>
<g>
</g>
<g>
</g>
<g>
</g>
<g>
</g>
<g>
</g>
<g>
</g>
<g>
</g>
<g>
</g>
<g>
</g>
<g>
</g>
<g>
</g>
<g>
</g>
<g>
</g>
<g>
</g>
</svg>
