<?xml version="1.0" encoding="iso-8859-1"?>
<!-- Generator: Adobe Illustrator 19.0.0, SVG Export Plug-In . SVG Version: 6.00 Build 0)  -->
<svg version="1.1" id="Capa_1" xmlns="http://www.w3.org/2000/svg" xmlns:xlink="http://www.w3.org/1999/xlink" x="0px" y="0px"
	 viewBox="0 0 448 448" style="enable-background:new 0 0 448 448;" xml:space="preserve">
<path style="fill:#C2DD90;" d="M232.007,248c-57.344,0-104-46.656-104-104s46.656-104,104-104s104,46.656,104,104
	S289.351,248,232.007,248z"/>
<circle style="fill:#89C441;" cx="231.993" cy="144" r="56"/>
<path style="fill:#FFFFFF;" d="M312.007,136H295.2c-3.643-28.878-26.315-51.55-55.194-55.194V64h-16v16.806
	c-28.878,3.644-51.55,26.316-55.194,55.194h-16.806v16h16.806c3.978,31.526,30.587,56,63.194,56s59.216-24.474,63.194-56h16.806V136
	z M232.007,192c-26.468,0-48-21.534-48-48c0-26.468,21.532-48,48-48c26.468,0,48,21.532,48,48
	C280.007,170.466,258.475,192,232.007,192z"/>
<path style="fill:#F8DFD2;" d="M175.538,439.984c-25.469,0-49.453-9.946-67.516-28.016c-18.078-18.07-28.031-42.062-28.031-67.554
	v-52.625c0-8.5,4.484-16.187,11.984-20.57l70.156-40.789c2.25-1.656,7-4.125,13.234-4.125c9.687,0,15.703,5.562,18.422,8.875
	l14.203,17.406v-92.844c0-13.234,10.766-24,24-24c13.234,0,24,10.766,24,24v159.953c0,3.282,2.016,6.156,5.141,7.328l19.828-20.695
	c16.531-16.531,42.687-20.946,63.687-10.922l10.234,4.875l-113.436,113.25c-17.89,17.062-41.297,26.453-65.875,26.453
	C175.554,439.984,175.554,439.984,175.538,439.984z"/>
<path style="fill:#010101;" d="M343.308,152h32.699v-16h-32.404c-3.929-55.453-48.143-99.667-103.596-103.596V0h-16v32.404
	C168.555,36.333,124.34,80.547,120.411,136H88.007v16h32.458c2.05,28.84,14.96,54.589,34.742,73.282l-67.278,38.942
	c-9.52,5.551-15.936,15.792-15.936,27.568v52.624C71.993,401.632,118.36,448,175.577,448c27.712,0,52.815-10.944,71.392-28.672
	l0.016,0.143l1.776-1.776c0.032-0.031,0.065-0.063,0.08-0.079l107.744-107.761c4.559-4.544,4.559-11.903,0.016-16.447
	c-0.64-0.641-1.328-1.2-2.063-1.633c-10.368-6.527-22.192-9.823-34.017-9.823c-16.368,0-32.72,6.239-45.199,18.72l-11.329,11.311
	v-61.105C307.684,237.805,339.934,199.079,343.308,152z M136.691,152h15.317v-16h-15.594c3.868-46.553,41.042-83.726,87.594-87.594
	v16.258h16V48.406c46.552,3.868,83.726,41.042,87.594,87.594h-15.594v16h15.317c-3.205,38.105-28.598,69.675-63.33,82.049v-74.305
	c0-17.601-14.4-32-32-32c-17.601,0-32,14.399-32,32v70.399c-5.841-7.168-14.641-11.84-24.608-11.84c-1.01,0-1.906,0.374-2.892,0.469
	C152.383,202.78,138.965,179.057,136.691,152z M265.674,332.926l20.943-20.943c9.056-9.056,21.088-14.031,33.888-14.031
	c7.216,0,14.271,1.6,20.704,4.672l-105.28,105.12c-16.399,15.632-37.84,24.239-60.351,24.239
	c-48.289,0.017-87.585-39.279-87.585-87.567v-52.624c0-5.632,2.991-10.736,8.016-13.664l70.143-40.784
	c1.921-1.376,5.089-3.04,9.217-3.04c6.399,0,10.399,3.729,12.224,5.952l28.4,34.784V159.744c0-8.817,7.183-16,16-16
	c8.815,0,16,7.183,16,16v159.951c0,6.827,4.313,12.563,10.346,14.823C260.883,335.47,263.753,334.848,265.674,332.926z"/>
<g>
</g>
<g>
</g>
<g>
</g>
<g>
</g>
<g>
</g>
<g>
</g>
<g>
</g>
<g>
</g>
<g>
</g>
<g>
</g>
<g>
</g>
<g>
</g>
<g>
</g>
<g>
</g>
<g>
</g>
</svg>
