<?xml version="1.0" encoding="iso-8859-1"?>
<!-- Generator: Adobe Illustrator 19.0.0, SVG Export Plug-In . SVG Version: 6.00 Build 0)  -->
<svg xmlns="http://www.w3.org/2000/svg" xmlns:xlink="http://www.w3.org/1999/xlink" version="1.1" id="Layer_1" x="0px" y="0px" viewBox="0 0 512.001 512.001" style="enable-background:new 0 0 512.001 512.001;" xml:space="preserve" width="512px" height="512px">
<g>
	<g>
		<path d="M510.744,260.96c-2.933-5.87-10.066-8.248-15.937-5.314L270.515,367.792c-9.088,4.54-19.939,4.54-29.028,0L17.195,255.646    c-5.868-2.935-13.004-0.557-15.938,5.314c-2.934,5.867-0.556,13.003,5.312,15.937l224.298,112.148c0,0,0.001,0,0.002,0.001    c0,0,0.001,0.001,0.002,0.001c7.868,3.93,16.499,5.895,25.129,5.895s17.262-1.965,25.129-5.895c0.001,0,0.001-0.001,0.001-0.001    c0.001-0.001,0.002-0.001,0.002-0.001l224.298-112.148C511.3,273.963,513.679,266.827,510.744,260.96z" fill="#254B72"/>
	</g>
</g>
<g>
	<g>
		<path d="M496.246,153.401L281.132,45.842c-15.738-7.86-34.526-7.86-50.265,0.002L15.751,153.403    c-9.712,4.861-15.747,14.627-15.747,25.486c0,10.861,6.035,20.626,15.751,25.489l215.116,107.558    c7.868,3.93,16.497,5.894,25.128,5.894s17.265-1.965,25.134-5.897l215.113-107.556c0.001-0.001,0.002-0.001,0.004-0.002    c9.712-4.861,15.747-14.627,15.747-25.487S505.962,158.264,496.246,153.401z M485.623,183.127L270.515,290.681    c-9.088,4.539-19.939,4.539-29.025,0.002L26.384,183.13c-2.281-1.142-2.622-3.147-2.622-4.241c0-1.093,0.341-3.098,2.618-4.237    L241.49,67.097c4.544-2.27,9.528-3.405,14.514-3.405c4.983,0,9.967,1.135,14.508,3.403L485.62,174.649    c2.281,1.142,2.622,3.147,2.622,4.24C488.242,179.983,487.901,181.986,485.623,183.127z" fill="#254B72"/>
	</g>
</g>
<g>
	<g>
		<path d="M256.001,167.013c-6.557,0-11.879,5.31-11.879,11.879c0,6.556,5.322,11.879,11.879,11.879s11.879-5.322,11.879-11.879    C267.88,172.323,262.559,167.013,256.001,167.013z" fill="#254B72"/>
	</g>
</g>
<g>
	<g>
		<path d="M510.743,338.072c-2.932-5.867-10.065-8.245-15.936-5.314L270.511,444.905c-0.001,0.001-0.002,0.001-0.005,0.002    c-9.083,4.533-19.926,4.533-29.009,0c-0.001-0.001-0.002-0.001-0.005-0.002L17.195,332.757    c-5.867-2.934-13.004-0.557-15.938,5.312c-2.934,5.868-0.556,13.004,5.312,15.938l224.297,112.148    c0.005,0.002,0.008,0.004,0.013,0.006c7.865,3.928,16.493,5.892,25.121,5.892c8.628,0,17.256-1.964,25.121-5.892    c0.005-0.002,0.008-0.004,0.013-0.006l224.297-112.147C511.299,351.075,513.677,343.939,510.743,338.072z" fill="#254B72"/>
	</g>
</g>
<g>
	<g>
		<path d="M216.146,167.013c-6.557,0-11.879,5.31-11.879,11.879c0,6.556,5.322,11.879,11.879,11.879    c6.557,0,11.879-5.322,11.879-11.879C228.026,172.323,222.704,167.013,216.146,167.013z" fill="#254B72"/>
	</g>
</g>
<g>
	<g>
		<path d="M295.856,167.013c-6.557,0-11.879,5.31-11.879,11.879c0,6.556,5.322,11.879,11.879,11.879s11.879-5.322,11.879-11.879    C307.735,172.323,302.413,167.013,295.856,167.013z" fill="#254B72"/>
	</g>
</g>
<g>
</g>
<g>
</g>
<g>
</g>
<g>
</g>
<g>
</g>
<g>
</g>
<g>
</g>
<g>
</g>
<g>
</g>
<g>
</g>
<g>
</g>
<g>
</g>
<g>
</g>
<g>
</g>
<g>
</g>
</svg>
