<svg xmlns="http://www.w3.org/2000/svg" xmlns:xlink="http://www.w3.org/1999/xlink" viewBox="5815 -62 300 300">
  <defs>
    <style>
      .cls-1 {
        clip-path: url(#clip-asset);
      }

      .cls-2 {
        fill: #333e48;
      }

      .cls-3 {
        opacity: 0.2;
      }

      .cls-4 {
        fill: #5c6670;
      }

      .cls-5 {
        fill: #fff;
      }

      .cls-6 {
        fill: #1e252b;
      }

      .cls-7 {
        fill: #f6c358;
      }

      .cls-8 {
        fill: #fcd462;
      }

      .cls-9 {
        fill: #44c4a1;
      }

      .cls-10 {
        fill: #e4eaf6;
      }

      .cls-11 {
        fill: #cfd7e8;
      }

      .cls-12 {
        fill: #bec8dc;
      }

      .cls-13 {
        fill: #b9ebff;
      }

      .cls-14 {
        fill: #d2f5f0;
      }

      .cls-15 {
        fill: #fcffdc;
      }

      .cls-16 {
        fill: #b4ebbe;
      }

      .cls-17 {
        fill: #a0d778;
      }

      .cls-18 {
        fill: #fff5a5;
      }

      .cls-19 {
        fill: #ffdc69;
      }

      .cls-20 {
        fill: #f24125;
      }

      .cls-21 {
        fill: #fcbc1d;
      }

      .cls-22 {
        opacity: 0.25;
      }

      .cls-23 {
        fill: #333;
      }

      .cls-24 {
        fill: #f2f2f2;
      }

      .cls-25 {
        fill: #20505b;
      }

      .cls-26 {
        fill: #1aa5e2;
      }

      .cls-27 {
        fill: #e6e6e6;
      }

      .cls-28 {
        fill: #ccc;
      }

      .cls-29 {
        fill: #4d4d4d;
      }

      .cls-30 {
        fill: #f4516d;
      }
    </style>
    <clipPath id="clip-asset">
      <rect x="5815" y="-62" width="300" height="300"/>
    </clipPath>
  </defs>
  <g id="asset" class="cls-1">
    <g id="_013-computer" data-name="013-computer" transform="translate(5829 -67.683)">
      <rect id="Rectangle_70" data-name="Rectangle 70" class="cls-2" width="63.652" height="31.226" transform="translate(104.492 215.785)"/>
      <rect id="Rectangle_71" data-name="Rectangle 71" class="cls-3" width="63.652" height="13.854" transform="translate(104.492 215.785)"/>
      <path id="Path_156" data-name="Path 156" class="cls-4" d="M253.2,440.337a9.979,9.979,0,1,0,0-19.958H155.576a9.979,9.979,0,1,0,0,19.958Z" transform="translate(-68.065 -175.169)"/>
      <path id="Path_157" data-name="Path 157" class="cls-2" d="M272.092,66.151a12.046,12.046,0,0,0-12.01-12.01H20.467a12.046,12.046,0,0,0-12.01,12.01V212.808a12.045,12.045,0,0,0,12.01,12.01H260.082a12.045,12.045,0,0,0,12.01-12.01V66.151Z" transform="translate(-3.954 -3.954)"/>
      <rect id="Rectangle_72" data-name="Rectangle 72" class="cls-5" width="227.606" height="134.649" transform="translate(22.519 68.201)"/>
      <path id="Path_158" data-name="Path 158" class="cls-6" d="M344.37,187.2l17.6,17.6a4.216,4.216,0,0,1,0,5.945l-4.838,4.839a4.215,4.215,0,0,1-5.944,0l-17.6-17.6-6.236,15.442c-.865,2.143-2.085,2.076-2.71-.15L312.1,168.625c-.625-2.225.685-3.536,2.911-2.911l44.649,12.537c2.226.625,2.292,1.845.15,2.71Z" transform="translate(-145.833 -56.041)"/>
      <path id="Path_159" data-name="Path 159" class="cls-4" d="M8.458,329.681v11.941a12.045,12.045,0,0,0,12.01,12.01H260.083a12.045,12.045,0,0,0,12.01-12.01V329.681Z" transform="translate(-3.954 -132.768)"/>
      <g id="Group_71" data-name="Group 71" transform="translate(0 45.683)">
        <circle id="Ellipse_29" data-name="Ellipse 29" class="cls-6" cx="4.804" cy="4.804" r="4.804" transform="translate(131.515 158.999)"/>
        <path id="Path_160" data-name="Path 160" class="cls-6" d="M256.129,45.683H16.513A16.532,16.532,0,0,0,0,62.2V208.854a16.532,16.532,0,0,0,16.513,16.513H99.992v15.34H87.51a14.483,14.483,0,1,0,0,28.966h97.622a14.483,14.483,0,1,0,0-28.966H172.651v-15.34h83.478a16.532,16.532,0,0,0,16.513-16.513V62.2A16.533,16.533,0,0,0,256.129,45.683Zm-71,204.031a5.475,5.475,0,1,1,0,10.95H87.51a5.475,5.475,0,1,1,0-10.95ZM109,240.707v-15.34h54.645v15.34Zm154.636-31.853a7.515,7.515,0,0,1-7.506,7.506H16.513a7.515,7.515,0,0,1-7.506-7.506v-7.437H263.635v7.437Zm0-16.444H9.007V62.2a7.514,7.514,0,0,1,7.506-7.506H256.129a7.514,7.514,0,0,1,7.506,7.506V192.409Z" transform="translate(0 -45.683)"/>
      </g>
    </g>
    <g id="_006-typography" data-name="006-typography" transform="translate(5907.834 -26.166)">
      <g id="Group_72" data-name="Group 72" transform="translate(30.302 78.839)">
        <path id="Path_161" data-name="Path 161" class="cls-7" d="M281.82,170.575l-5.229-5.229a19.8,19.8,0,0,0-3.725,1.5l1.719,5.874A15.7,15.7,0,0,1,281.82,170.575Z" transform="translate(-270.717 -165.346)"/>
        <path id="Path_162" data-name="Path 162" class="cls-7" d="M281.3,256.791V255.5l-11.247-11.247c-9.313.43-15.258,4.083-15.258,11.247a9.079,9.079,0,0,0,9.528,9.1,10.621,10.621,0,0,0,8.453-3.653h.215l.573,2.937h8.31A31.651,31.651,0,0,1,281.3,256.791Zm-8.883-3.582a5.586,5.586,0,0,1-.215,1.576,5.025,5.025,0,0,1-4.8,3.367c-2.077,0-3.653-1.146-3.653-3.51,0-3.51,3.725-4.656,8.6-4.656v3.224h.072Z" transform="translate(-254.796 -234.871)"/>
      </g>
      <path id="Path_163" data-name="Path 163" class="cls-8" d="M324.289,168.459c0-6.949-3.08-12.751-12.966-12.751a25.937,25.937,0,0,0-7.737,1.146l5.229,5.229h.86c4.513,0,5.373,2.221,5.373,3.8v.358a20.141,20.141,0,0,0-2.077.072l11.247,11.247v-9.1Z" transform="translate(-267.482 -78.016)"/>
      <path id="Path_164" data-name="Path 164" class="cls-9" d="M12.393,97.464,9.528,107.923H0L12.465,67.162H24.5l12.679,40.761H27.293L24.141,97.464H12.393Zm10.316-6.877L20.2,81.919c-.645-2.436-1.361-5.516-2.006-7.88h-.143c-.573,2.436-1.218,5.516-1.791,7.88l-2.507,8.668Z"/>
    </g>
    <g id="_007-image" data-name="007-image" transform="translate(5991.298 -30.025)">
      <path id="Path_165" data-name="Path 165" class="cls-10" d="M24.462,183.785V141.241H19.357a1.7,1.7,0,0,0-1.7,1.7V197.4a1.7,1.7,0,0,0,1.7,1.7H94.235a1.7,1.7,0,0,0,1.7-1.7v-5.105H32.971A8.509,8.509,0,0,1,24.462,183.785Z" transform="translate(-14.251 -71.258)"/>
      <path id="Path_166" data-name="Path 166" class="cls-11" d="M61.475,188.891a5.105,5.105,0,0,1-5.105-5.105V141.241h-3.4v42.544a8.509,8.509,0,0,0,8.509,8.509h62.966v-3.4H61.475Z" transform="translate(-42.755 -71.258)"/>
      <path id="Path_167" data-name="Path 167" class="cls-12" d="M81.685,178.043v5.105a1.7,1.7,0,0,1-1.7,1.7H5.105a1.7,1.7,0,0,1-1.7-1.7V128.691a1.7,1.7,0,0,1,1.7-1.7h8.509v-3.4H5.105a5.086,5.086,0,0,0-2.433.616c-.145.078-.285.164-.421.256a5.135,5.135,0,0,0-1.379,1.379q-.138.2-.256.421A5.085,5.085,0,0,0,0,128.691v54.457a5.085,5.085,0,0,0,.616,2.433c.078.145.164.285.256.421a5.132,5.132,0,0,0,1.379,1.379q.2.138.421.256a5.085,5.085,0,0,0,2.433.616H79.983a5.085,5.085,0,0,0,2.433-.616c.145-.078.285-.164.421-.256A5.134,5.134,0,0,0,84.217,186q.138-.2.256-.421a5.055,5.055,0,0,0,.455-1.158,5.116,5.116,0,0,0,.161-1.276v-8.509h-3.4v3.4Z" transform="translate(0 -57.007)"/>
      <g id="Group_73" data-name="Group 73" transform="translate(13.614 52.965)">
        <path id="Path_168" data-name="Path 168" class="cls-13" d="M431.883,52.966H419.074a32.15,32.15,0,0,1,6,18.719,32.5,32.5,0,0,1-.6,6.209L436.988,90.4V58.071A5.105,5.105,0,0,0,431.883,52.966Z" transform="translate(-351.899 -52.966)"/>
        <path id="Path_169" data-name="Path 169" class="cls-13" d="M70.62,104.019,84.743,89.9a32.266,32.266,0,0,1,.388-36.93H75.725a5.105,5.105,0,0,0-5.105,5.105v45.948Z" transform="translate(-70.62 -52.966)"/>
      </g>
      <g id="Group_74" data-name="Group 74" transform="translate(22.123 52.965)">
        <path id="Path_170" data-name="Path 170" class="cls-14" d="M337.031,71.686c0,.6-.028,1.2-.079,1.793a5.1,5.1,0,0,1,7.093.115l4.3,4.3a32.483,32.483,0,0,0,.6-6.209,32.15,32.15,0,0,0-6-18.719H324.76A20.418,20.418,0,0,1,337.031,71.686Z" transform="translate(-284.276 -52.967)"/>
        <path id="Path_171" data-name="Path 171" class="cls-14" d="M251.346,251.346l4.3,4.3,3.482-3.482c-.587.051-1.18.078-1.78.078A20.425,20.425,0,0,1,251.346,251.346Z" transform="translate(-225.015 -213.102)"/>
        <path id="Path_172" data-name="Path 172" class="cls-14" d="M114.759,71.685A32.181,32.181,0,0,0,120.373,89.9l6.092-6.092a5.083,5.083,0,0,1,3.2-1.476,20.42,20.42,0,0,1,9.281-29.363H120.761A32.148,32.148,0,0,0,114.759,71.685Z" transform="translate(-114.759 -52.965)"/>
      </g>
      <path id="Path_173" data-name="Path 173" class="cls-15" d="M176.552,71.685a20.325,20.325,0,0,0,2.99,10.643,5.091,5.091,0,0,1,4.023,1.476l7.405,7.405a20.422,20.422,0,0,0,6,.9c.6,0,1.193-.027,1.78-.078l18.435-18.435c.041-.041.085-.076.127-.115.051-.591.079-1.189.079-1.793a20.418,20.418,0,0,0-12.271-18.719h-16.3A20.418,20.418,0,0,0,176.552,71.685Zm20.421-11.912a11.912,11.912,0,1,1-11.912,11.912A11.912,11.912,0,0,1,196.973,59.773Z" transform="translate(-142.516 -0.001)"/>
      <path id="Path_174" data-name="Path 174" class="cls-16" d="M302.793,153.717a5.1,5.1,0,0,0-7.093-.115c-.042.039-.086.074-.127.115l-18.435,18.435-3.482,3.482,22.123,22.123H314.5a5.105,5.105,0,0,0,5.105-5.105V170.528l-12.51-12.51Z" transform="translate(-220.901 -80.124)"/>
      <path id="Path_175" data-name="Path 175" class="cls-17" d="M98.055,206.683a5.113,5.113,0,0,0-7.22,0l-6.092,6.092L70.62,226.9v8.509a5.105,5.105,0,0,0,5.105,5.105h56.158l-22.123-22.123-4.3-4.3Z" transform="translate(-57.006 -122.879)"/>
      <path id="Path_176" data-name="Path 176" class="cls-18" d="M220.69,100.188A11.912,11.912,0,1,0,232.6,88.276,11.912,11.912,0,0,0,220.69,100.188Zm18.719,0a6.807,6.807,0,1,1-6.807-6.807A6.807,6.807,0,0,1,239.409,100.188Z" transform="translate(-178.146 -28.504)"/>
      <circle id="Ellipse_30" data-name="Ellipse 30" class="cls-19" cx="6.807" cy="6.807" r="6.807" transform="translate(47.65 64.878)"/>
    </g>
    <g id="_005-man-on-the-moon" data-name="005-man-on-the-moon" transform="translate(5792.912 -38.459)">
      <path id="Path_188" data-name="Path 188" class="cls-20" d="M305.761,96.052l10.093-17.521,10.637,6.128L321.685,93l-10.637-6.128" transform="translate(-215.634 -59.628)"/>
      <path id="Path_189" data-name="Path 189" class="cls-21" d="M133.761,129.7a41.069,41.069,0,0,1-29.022,70.14q-1.033,0-2.051-.051a41.07,41.07,0,0,1-39.024-41.024c0-.45.007-.9.022-1.346a41.076,41.076,0,0,1,37.9-39.609q1.563-.119,3.156-.12A41,41,0,0,1,133.761,129.7Z" transform="translate(-31.812 -89.359)"/>
      <path id="Path_190" data-name="Path 190" class="cls-22" d="M108.256,197.924a41.073,41.073,0,0,1,5.088-78.906,41.074,41.074,0,1,0,0,80.339A40.768,40.768,0,0,1,108.256,197.924Z" transform="translate(-31.813 -89.681)"/>
      <g id="Group_75" data-name="Group 75" transform="translate(90.814 50.874)">
        <path id="Path_191" data-name="Path 191" class="cls-22" d="M313.813,224.018c-.588-2.857.276-5.569,1.995-6.872a3.951,3.951,0,0,1,1.582-.724c2.726-.559,5.537,1.933,6.285,5.57s-.853,7.034-3.579,7.594a4.066,4.066,0,0,1-2.574-.338A7.321,7.321,0,0,1,313.813,224.018Z" transform="translate(-312.423 -215.142)"/>
        <path id="Path_192" data-name="Path 192" class="cls-21" d="M313.813,226.55c-.588-2.857.276-5.569,1.995-6.872a7.313,7.313,0,0,1,3.709,5.229c.588,2.858-.276,5.569-1.995,6.872A7.322,7.322,0,0,1,313.813,226.55Z" transform="translate(-312.423 -217.674)"/>
        <path id="Path_193" data-name="Path 193" class="cls-23" d="M315.518,227.079a5.433,5.433,0,0,1-2.312-.531,1.2,1.2,0,0,1,1.023-2.179,2.882,2.882,0,0,0,1.817.249,3.3,3.3,0,0,0,2.247-1.978,6.743,6.743,0,0,0,.4-4.2c-.6-2.928-2.83-5.051-4.864-4.633a2.748,2.748,0,0,0-1.1.506c-1.4,1.061-2.02,3.34-1.54,5.668a1.2,1.2,0,0,1-2.358.485c-.672-3.269.288-6.437,2.447-8.074a5.146,5.146,0,0,1,2.065-.944c3.372-.692,6.828,2.227,7.708,6.506a9.158,9.158,0,0,1-.577,5.705,5.643,5.643,0,0,1-3.938,3.31A5.013,5.013,0,0,1,315.518,227.079Z" transform="translate(-308.617 -211.353)"/>
      </g>
      <g id="Group_76" data-name="Group 76" transform="translate(90.199 41.82)">
        <path id="Path_194" data-name="Path 194" class="cls-5" d="M334.59,182.861a1.2,1.2,0,0,1-1.013-.551,35.349,35.349,0,0,0-5.39-6.5,1.2,1.2,0,0,1,1.656-1.747,37.756,37.756,0,0,1,5.757,6.94,1.2,1.2,0,0,1-1.01,1.856Z" transform="translate(-322.576 -173.736)"/>
        <path id="Path_195" data-name="Path 195" class="cls-5" d="M328.3,291.5a1.2,1.2,0,0,1-.823-2.082,35.054,35.054,0,0,0,10.567-31.856,1.2,1.2,0,1,1,2.369-.429,37.462,37.462,0,0,1-11.291,34.043A1.2,1.2,0,0,1,328.3,291.5Z" transform="translate(-322.035 -236.309)"/>
        <path id="Path_196" data-name="Path 196" class="cls-5" d="M307.267,407.8a1.2,1.2,0,0,1-.656-2.213c.615-.4,1.224-.822,1.811-1.258a1.2,1.2,0,1,1,1.434,1.933c-.627.466-1.279.918-1.935,1.344A1.2,1.2,0,0,1,307.267,407.8Z" transform="translate(-306.063 -348.642)"/>
      </g>
      <path id="Path_197" data-name="Path 197" class="cls-23" d="M100.942,197.244a42.278,42.278,0,1,1,42.278-42.278A42.326,42.326,0,0,1,100.942,197.244Zm0-82.149a39.871,39.871,0,1,0,39.871,39.871A39.916,39.916,0,0,0,100.942,115.1Z" transform="translate(-28.016 -85.563)"/>
      <path id="Path_198" data-name="Path 198" class="cls-22" d="M230.577,270.248a7.8,7.8,0,0,1-10.22,7.414,7.8,7.8,0,0,0,0-14.828,7.8,7.8,0,0,1,10.22,7.414Z" transform="translate(-150.788 -199.275)"/>
      <g id="Group_77" data-name="Group 77" transform="translate(42.128 75.109)">
        <path id="Path_199" data-name="Path 199" class="cls-21" d="M122.623,330.211a4.553,4.553,0,0,1-1.673,1.367c-2.915,1.384-6.776-.65-8.622-4.54s-.98-8.167,1.935-9.551a4.443,4.443,0,0,1,1.377-.4c2.657-.327,5.676,1.634,7.245,4.939C124.308,325.029,124.121,328.254,122.623,330.211Z" transform="translate(-110.153 -315.846)"/>
        <path id="Path_200" data-name="Path 200" class="cls-22" d="M132.244,330.211c-2.66.33-5.678-1.634-7.245-4.937-1.423-3-1.235-6.227.262-8.184,2.657-.327,5.676,1.634,7.245,4.939C133.929,325.029,133.741,328.254,132.244,330.211Z" transform="translate(-119.774 -315.846)"/>
        <path id="Path_201" data-name="Path 201" class="cls-23" d="M115.185,329.409a7.1,7.1,0,0,1-3.307-.869,10.939,10.939,0,0,1-5.348-11.267,6.074,6.074,0,0,1,9.2-4.369,10.43,10.43,0,0,1,4.437,4.8A1.2,1.2,0,0,1,118,318.733a8.013,8.013,0,0,0-3.384-3.7,3.685,3.685,0,0,0-5.724,2.717A8.544,8.544,0,0,0,113,326.41a3.685,3.685,0,0,0,5.724-2.717,1.2,1.2,0,0,1,2.359.478,6.363,6.363,0,0,1-3.416,4.683A5.752,5.752,0,0,1,115.185,329.409Z" transform="translate(-106.354 -312.035)"/>
      </g>
      <path id="Path_202" data-name="Path 202" class="cls-23" d="M202.025,275.455a9.012,9.012,0,0,1-9-9,1.2,1.2,0,0,1,2.407,0,6.592,6.592,0,1,0,3.2-5.658,1.2,1.2,0,1,1-1.24-2.063,9,9,0,1,1,4.63,16.723Z" transform="translate(-130.033 -195.48)"/>
      <path id="Path_203" data-name="Path 203" class="cls-23" d="M217.834,186.071a4.235,4.235,0,0,1-3-1.242,1.2,1.2,0,0,1,1.7-1.7,1.841,1.841,0,1,0,0-2.6,1.2,1.2,0,1,1-1.7-1.7,4.248,4.248,0,1,1,3,7.25Z" transform="translate(-146.323 -134.834)"/>
      <path id="Path_204" data-name="Path 204" class="cls-23" d="M280.223,366.442a4.234,4.234,0,0,1-3-1.242,1.2,1.2,0,1,1,1.7-1.7,1.841,1.841,0,1,0,0-2.6,1.2,1.2,0,1,1-1.7-1.7,4.248,4.248,0,1,1,3,7.25Z" transform="translate(-193.695 -271.788)"/>
      <path id="Path_205" data-name="Path 205" class="cls-24" d="M130.269,150.661l-2.583,2.58-7.2-7.2,4.458-.7Z" transform="translate(-74.955 -110.353)"/>
      <path id="Path_206" data-name="Path 206" class="cls-24" d="M64.179,114.147l-7.038,7.038-7.2-7.2-8.314-8.314A16.308,16.308,0,0,1,36.846,93.85a16.33,16.33,0,0,1,10.589,3.671,16.16,16.16,0,0,1,1.228,1.11l8.314,8.314Z" transform="translate(-11.448 -71.258)"/>
      <path id="Path_207" data-name="Path 207" class="cls-22" d="M59.014,109.107l9.705,23.664L52.094,116.027Z" transform="translate(-23.027 -82.844)"/>
      <path id="Path_208" data-name="Path 208" class="cls-24" d="M96.221,184.7l-2.58,2.583-5.327-5.327.705-4.458Z" transform="translate(-50.529 -134.772)"/>
      <path id="Path_209" data-name="Path 209" class="cls-22" d="M96.221,184.7l-2.58,2.583-5.327-5.327.705-4.458Z" transform="translate(-50.529 -134.772)"/>
      <path id="Path_210" data-name="Path 210" class="cls-23" d="M89.844,184.688a1.2,1.2,0,0,1-.851-.352l-5.327-5.327a1.2,1.2,0,0,1-.338-1.039l.705-4.458a1.2,1.2,0,0,1,2.04-.663l7.2,7.2a1.2,1.2,0,0,1,0,1.7l-2.58,2.583a1.2,1.2,0,0,1-.851.353ZM85.8,177.74l4.042,4.042.879-.88-4.681-4.681Z" transform="translate(-46.732 -130.975)"/>
      <path id="Path_211" data-name="Path 211" class="cls-23" d="M123.889,150.648a1.2,1.2,0,0,1-.851-.352l-7.2-7.2a1.2,1.2,0,0,1,.664-2.04l4.458-.7a1.2,1.2,0,0,1,1.038.337l5.327,5.324a1.2,1.2,0,0,1,0,1.7l-2.583,2.58A1.2,1.2,0,0,1,123.889,150.648Zm-4.679-7.585,4.68,4.68.88-.879-4.042-4.04Z" transform="translate(-71.158 -106.556)"/>
      <rect id="Rectangle_73" data-name="Rectangle 73" class="cls-23" width="2.407" height="9.954" transform="translate(46.544 50.778) rotate(-135)"/>
      <g id="XMLID_43_" transform="translate(24.192 21.386)">
        <g id="Group_78" data-name="Group 78" transform="translate(1.204 1.204)">
          <path id="Path_212" data-name="Path 212" class="cls-20" d="M47.435,97.521l-6.92,6.92A16.311,16.311,0,0,1,36.846,93.85a16.33,16.33,0,0,1,10.589,3.671Z" transform="translate(-36.844 -93.848)"/>
        </g>
        <g id="Group_79" data-name="Group 79">
          <path id="Path_213" data-name="Path 213" class="cls-23" d="M45.29,111.037l-8.314-8.314a17.512,17.512,0,0,1-5.13-12.691,1.2,1.2,0,0,1,1.184-1.183,17.519,17.519,0,0,1,12.687,5.133L54.03,102.3l-1.7,1.7-8.314-8.314a15.128,15.128,0,0,0-9.734-4.4,15.13,15.13,0,0,0,3.37,8.6,14.951,14.951,0,0,0,1.028,1.137l8.314,8.314Z" transform="translate(-31.843 -88.848)"/>
          <rect id="Rectangle_74" data-name="Rectangle 74" class="cls-23" width="2.407" height="9.787" transform="translate(5.726 12.648) rotate(-135)"/>
        </g>
      </g>
      <path id="Path_214" data-name="Path 214" class="cls-23" d="M301.964,93.459a1.2,1.2,0,0,1-1.042-1.8l5.276-9.16.01-.018.011-.018,4.8-8.325a1.2,1.2,0,0,1,1.644-.442L323.3,79.819a1.2,1.2,0,0,1,.442,1.644l-4.806,8.343a1.2,1.2,0,0,1-1.644.442l-9.594-5.527-4.686,8.135A1.2,1.2,0,0,1,301.964,93.459Zm6.931-10.823,8.551,4.926,3.6-6.257L312.5,76.378Z" transform="translate(-211.838 -55.831)"/>
      <g id="Group_80" data-name="Group 80" transform="translate(57.636 0)">
        <path id="Path_215" data-name="Path 215" class="cls-25" d="M210.893,24.212l.007.007a5.214,5.214,0,0,1-8.223,0l.007,0a5.208,5.208,0,0,1-.823-1.507,5.213,5.213,0,0,1,9.852,0A5.175,5.175,0,0,1,210.893,24.212Z" transform="translate(-194.38 -14.578)"/>
        <path id="Path_216" data-name="Path 216" class="cls-26" d="M211.1,10.214a5.185,5.185,0,0,1-.289,1.714,5.213,5.213,0,0,0-9.852,0A5.215,5.215,0,1,1,211.1,10.214Z" transform="translate(-193.477 -3.796)"/>
        <path id="Path_217" data-name="Path 217" class="cls-26" d="M196.888,40.05a5.214,5.214,0,0,0,8.223,0c3.94,2.734,2.323,13.663,2.323,13.663q-.747.155-1.5.272h0c-.708.113-1.415.2-2.128.265-.833.072-1.668.116-2.5.123h-.611c-.835-.007-1.668-.051-2.5-.123-.712-.065-1.423-.152-2.13-.265-.5-.077-1-.168-1.5-.272C194.565,53.713,192.947,42.784,196.888,40.05Z" transform="translate(-188.59 -30.41)"/>
        <path id="Path_218" data-name="Path 218" class="cls-23" d="M207.045,10.484l-.507-.508-.441-.42.09.086-1.006-.661.071-.088-.005,0a4,4,0,0,0,.853-2.473,4.012,4.012,0,1,0-7.168,2.475l-1.893,1.486a6.42,6.42,0,1,1,10.113-.017,1.236,1.236,0,0,1-.093.11h0Zm-1.73-1.671h0Z" transform="translate(-189.681 0)"/>
        <path id="Path_219" data-name="Path 219" class="cls-23" d="M199.412,19.3l-2.274-.788a6.416,6.416,0,0,1,12.127.005l-2.276.783a4.009,4.009,0,0,0-7.577,0Z" transform="translate(-190.794 -10.782)"/>
        <path id="Path_220" data-name="Path 220" class="cls-23" d="M197.156,51.779h-.306c-.84-.007-1.713-.05-2.6-.127-.764-.07-1.508-.162-2.216-.275-.5-.077-1.027-.173-1.553-.282a1.2,1.2,0,0,1-.945-1c-.177-1.194-1.6-11.756,2.827-14.828a1.2,1.2,0,0,1,1.635.249,4.01,4.01,0,0,0,6.324,0,1.2,1.2,0,0,1,1.635-.249c4.427,3.072,3,13.633,2.827,14.828a1.2,1.2,0,0,1-.946,1c-.543.113-1.053.205-1.559.283l-.023,0c-.7.111-1.436.2-2.181.271-.9.078-1.77.12-2.6.128h-.316ZM191.8,48.9q.3.053.6.1c.662.106,1.352.191,2.057.256.824.071,1.634.111,2.4.118h.6c.758-.007,1.568-.046,2.4-.118.7-.064,1.384-.149,2.042-.254l.035-.005c.19-.029.38-.061.574-.1.408-3.543.35-8.7-1.224-10.936a6.428,6.428,0,0,1-8.259,0C191.453,40.2,191.394,45.356,191.8,48.9Z" transform="translate(-184.747 -26.613)"/>
        <path id="Path_221" data-name="Path 221" class="cls-23" d="M198.66,102.921a1.2,1.2,0,0,1-1.1-.725,16.792,16.792,0,0,1-1.063-8.23,1.2,1.2,0,0,1,2.381.351,14.544,14.544,0,0,0,.891,6.921,1.2,1.2,0,0,1-1.1,1.683Z" transform="translate(-190.21 -70.567)"/>
        <path id="Path_222" data-name="Path 222" class="cls-23" d="M234.974,102.925a1.2,1.2,0,0,1-1.1-1.683,14.545,14.545,0,0,0,.891-6.922,1.2,1.2,0,0,1,2.382-.351,16.794,16.794,0,0,1-1.063,8.23A1.2,1.2,0,0,1,234.974,102.925Z" transform="translate(-218.609 -70.571)"/>
        <path id="Path_223" data-name="Path 223" class="cls-23" d="M171.986,47.7a1.2,1.2,0,0,1-1.18-1.444c1.686-8.265,7.276-8.636,7.513-8.647a1.2,1.2,0,0,1,.132,2.4c-.192.015-4,.4-5.286,6.725A1.2,1.2,0,0,1,171.986,47.7Z" transform="translate(-170.781 -28.557)"/>
        <path id="Path_224" data-name="Path 224" class="cls-23" d="M246.273,47.7a1.2,1.2,0,0,1-1.178-.963c-1.3-6.352-5.126-6.713-5.289-6.726a1.2,1.2,0,0,1,.134-2.4c.237.012,5.824.382,7.513,8.647a1.2,1.2,0,0,1-.938,1.42A1.189,1.189,0,0,1,246.273,47.7Z" transform="translate(-222.328 -28.557)"/>
        <path id="Path_225" data-name="Path 225" class="cls-5" d="M226.421,30.485a1.105,1.105,0,0,1-.236-.024,1.2,1.2,0,0,1-.224-.067,1.239,1.239,0,0,1-.209-.111,1.194,1.194,0,0,1-.534-1,1.138,1.138,0,0,1,.024-.236,1.258,1.258,0,0,1,.067-.224,1.311,1.311,0,0,1,.111-.207,1.1,1.1,0,0,1,.149-.183,1.39,1.39,0,0,1,.183-.152,1.078,1.078,0,0,1,.209-.108,1.05,1.05,0,0,1,.224-.07,1.212,1.212,0,0,1,1.086.33,1.248,1.248,0,0,1,.152.183,1.545,1.545,0,0,1,.111.207,1.258,1.258,0,0,1,.067.224,1.138,1.138,0,0,1,.024.236,1.09,1.09,0,0,1-.024.236,1.219,1.219,0,0,1-.067.224,1.438,1.438,0,0,1-.111.209,1.352,1.352,0,0,1-.152.183,1.081,1.081,0,0,1-.183.149,1.335,1.335,0,0,1-.207.111,1.257,1.257,0,0,1-.224.067A1.138,1.138,0,0,1,226.421,30.485Z" transform="translate(-212.114 -21.32)"/>
        <path id="Path_226" data-name="Path 226" class="cls-5" d="M231.993,61.21c-.038,0-.076,0-.115-.005a1.2,1.2,0,0,1-1.085-1.311,23.391,23.391,0,0,0-.216-6.68,1.2,1.2,0,1,1,2.346-.536,25.543,25.543,0,0,1,.266,7.442A1.2,1.2,0,0,1,231.993,61.21Z" transform="translate(-216.161 -39.287)"/>
      </g>
      <g id="Group_81" data-name="Group 81" transform="translate(115.403 10.049)">
        <path id="Path_227" data-name="Path 227" class="cls-21" d="M422.688,49.314a1.2,1.2,0,0,1-1.2-1.2V42.952a1.2,1.2,0,0,1,2.407,0v5.159A1.2,1.2,0,0,1,422.688,49.314Z" transform="translate(-418.904 -41.748)"/>
        <path id="Path_228" data-name="Path 228" class="cls-21" d="M417.13,54.872h-5.159a1.2,1.2,0,0,1,0-2.407h5.159a1.2,1.2,0,1,1,0,2.407Z" transform="translate(-410.767 -49.885)"/>
      </g>
      <g id="Group_82" data-name="Group 82" transform="translate(21.767 83.706)">
        <path id="Path_229" data-name="Path 229" class="cls-21" d="M33.688,355.314a1.2,1.2,0,0,1-1.2-1.2v-5.159a1.2,1.2,0,1,1,2.407,0v5.159A1.2,1.2,0,0,1,33.688,355.314Z" transform="translate(-29.904 -347.748)"/>
        <path id="Path_230" data-name="Path 230" class="cls-21" d="M28.13,360.872H22.971a1.2,1.2,0,0,1,0-2.407H28.13a1.2,1.2,0,0,1,0,2.407Z" transform="translate(-21.767 -355.885)"/>
      </g>
    </g>
    <g id="_004-ghost" data-name="004-ghost" transform="translate(5825.5 101.485)">
      <path id="Path_177" data-name="Path 177" class="cls-27" d="M113.015,68.711c-1.232,6.552-2.465,10.9-2.465,10.9l-2.013,8.606c-3.391,0-2.82-5.707-7.082-5.7h0q-.734.178-1.469.333c-2.813,1.368-3.434,6.491-9.792,6.491-7.125,0-6.52-4.856-11.088-5.537l-.26-.034-.16-.017c-5.033-.438-7.965,5.306-12.763,3.895a4.56,4.56,0,0,1-3.212-3.439,7.052,7.052,0,0,1,1.343-6.145c8.789-11.118,7.81-35.364,9.052-50.881a21.452,21.452,0,0,1,3.056-9.76A19.02,19.02,0,0,1,99.028,9.9a21.25,21.25,0,0,1,3,1.391h0C119.294,21,116.154,52.008,113.015,68.711Z" transform="translate(-7.229 -7.249)"/>
      <path id="Path_178" data-name="Path 178" class="cls-24" d="M243.992,11.294h0a21.276,21.276,0,0,0-3-1.391,19.581,19.581,0,0,0-8.871-1.133A19.655,19.655,0,0,1,236.949,9.9a21.251,21.251,0,0,1,3,1.391h0c17.263,9.709,14.123,40.717,10.985,57.42-1.232,6.552-2.465,10.9-2.465,10.9l-1.3,5.56c.864,1.487,1.554,3.047,3.327,3.047l2.013-8.606s1.232-4.352,2.465-10.9C258.115,52.011,261.255,21,243.992,11.294Z" transform="translate(-149.19 -7.252)"/>
      <path id="Path_179" data-name="Path 179" class="cls-28" d="M102.029,11.291c-.194-.034-16.37-.851-18.892,10.075C80.6,32.372,86.361,69.211,79.1,83.812l-.26-.034-.16-.017c-5.033-.438-7.965,5.306-12.763,3.895a4.56,4.56,0,0,1-3.212-3.439,7.052,7.052,0,0,1,1.343-6.145c8.789-11.118,7.81-35.364,9.052-50.881a21.452,21.452,0,0,1,3.056-9.76A19.02,19.02,0,0,1,99.028,9.9,21.261,21.261,0,0,1,102.029,11.291Z" transform="translate(-7.229 -7.249)"/>
      <path id="Path_180" data-name="Path 180" class="cls-29" d="M273.8,158.914c0-4.364-3.538-3.951-7.9-3.951s-7.9-.413-7.9,3.951a7.9,7.9,0,0,0,15.8,0Z" transform="translate(-170.849 -129.679)"/>
      <path id="Path_181" data-name="Path 181" class="cls-30" d="M280.691,193.356a7.9,7.9,0,0,1-12.469,0,7.9,7.9,0,0,1,12.469,0Z" transform="translate(-179.405 -159.265)"/>
      <path id="Path_182" data-name="Path 182" class="cls-27" d="M111.3,160.977l-2.39,14.923c.06-1.579-2.03-3.925-4.666-6.646-4.922-5.082-11.748-11.47-10.01-16.6.8-2.369,2.666-2.561,4.879-1.669C104.255,153.056,111.3,160.977,111.3,160.977Z" transform="translate(-33.561 -125.948)"/>
      <path id="Path_183" data-name="Path 183" class="cls-28" d="M104.239,169.254c-4.922-5.082-11.748-11.47-10.01-16.6.8-2.369,2.666-2.561,4.879-1.669C99.108,150.986,94.377,157.4,104.239,169.254Z" transform="translate(-33.56 -125.948)"/>
      <path id="Path_184" data-name="Path 184" d="M105.113,76.061a1.411,1.411,0,0,0-1.681,1.076c-.813,3.7-1.462,6.009-1.469,6.031s-.011.042-.016.063l-1.631,6.97a10.218,10.218,0,0,1-.856-1.345c-.91-1.606-2.156-3.8-5.22-3.8a1.651,1.651,0,0,0-.359.042,7.842,7.842,0,0,0-4.327,2.757c-.122.154-.244.312-.367.472-1.414,1.828-2.749,3.554-6.224,3.554a7.015,7.015,0,0,1-6.055-2.662,7.923,7.923,0,0,0-4.825-2.86l-.025,0-.26-.034-.033,0L71.6,86.3l-.022,0c-2.851-.248-5.068,1.12-7.024,2.327-2.2,1.355-3.634,2.158-5.463,1.62a3.128,3.128,0,0,1-2.246-2.446,5.656,5.656,0,0,1,1.086-4.909c5.613-7.1,7.379-18.9,8.217-31.032.774.816,1.561,1.621,2.333,2.409,2.321,2.372,5.5,5.62,5.453,6.823a1.411,1.411,0,0,0,1.356,1.464h.055a1.411,1.411,0,0,0,1.409-1.357c.093-2.417-2.57-5.138-6.256-8.905C66.124,47.817,60.681,42.254,62,38.347c.349-1.031.83-1.128,1.035-1.17,2.784-.565,9.653,5.494,13.64,9.976a1.411,1.411,0,0,0,2.109-1.875,70.634,70.634,0,0,0-5.8-5.706,29.745,29.745,0,0,0-5.977-4.233c.093-1.631.179-2.923.274-4.1a20.169,20.169,0,0,1,2.848-9.128,17.023,17.023,0,0,1,6.555-6.085,1.411,1.411,0,1,0-1.31-2.5,19.849,19.849,0,0,0-7.642,7.1A22.959,22.959,0,0,0,64.47,31.015c-.081,1-.155,2.084-.232,3.378a4.974,4.974,0,0,0-1.758.018,4.158,4.158,0,0,0-3.148,3.03c-1.268,3.743.986,7.686,4.175,11.478-.708,12.043-2.22,25.17-7.79,32.215a8.492,8.492,0,0,0-1.6,7.381,5.937,5.937,0,0,0,4.178,4.432c3.129.92,5.579-.592,7.741-1.926,1.734-1.07,3.37-2.08,5.286-1.918l.357.043a5.25,5.25,0,0,1,3.2,2.023A9.755,9.755,0,0,0,82.963,94.7c4.86,0,6.939-2.687,8.456-4.649.118-.153.235-.3.352-.452a5.006,5.006,0,0,1,2.616-1.72c1.249.059,1.768.87,2.619,2.37.794,1.4,1.882,3.322,4.3,3.322a1.411,1.411,0,0,0,1.374-1.09l2.006-8.576c.086-.306.711-2.564,1.5-6.163A1.409,1.409,0,0,0,105.113,76.061Z" transform="translate(0 -11.187)"/>
      <path id="Path_185" data-name="Path 185" d="M249.346,151.673a9.313,9.313,0,1,0,18.627,0,5.114,5.114,0,0,0-1.348-3.829c-1.592-1.58-4.066-1.561-6.931-1.538-.677.005-1.391.005-2.068,0-2.865-.023-5.339-.042-6.931,1.538A5.114,5.114,0,0,0,249.346,151.673Zm5.007,4.851a6.488,6.488,0,0,1,8.613,0,6.474,6.474,0,0,1-8.613,0Zm-1.671-6.677c.647-.642,2.215-.724,3.992-.724.3,0,.616,0,.93,0,.691.005,1.421.005,2.112,0,2.141-.017,4.164-.032,4.921.719.127.126.514.51.514,1.826a6.452,6.452,0,0,1-.525,2.556,9.311,9.311,0,0,0-11.931,0,6.454,6.454,0,0,1-.525-2.556C252.168,150.357,252.555,149.973,252.682,149.847Z" transform="translate(-163.608 -122.437)"/>
      <path id="Path_186" data-name="Path 186" d="M246.038,94.382a4.506,4.506,0,0,0-7.467,3.684,1.411,1.411,0,0,0,1.407,1.319l.094,0a1.411,1.411,0,0,0,1.316-1.5,1.684,1.684,0,1,1,3.361-.221,1.411,1.411,0,0,0,2.816-.185A4.479,4.479,0,0,0,246.038,94.382Z" transform="translate(-154.581 -78.052)"/>
      <path id="Path_187" data-name="Path 187" d="M250.193,26.255a4.222,4.222,0,0,0-2.834-2.954c-1.942-.556-4.487.306-7.739,2.631-1.967-12.96-7.534-21.234-16.571-24.6A20.908,20.908,0,0,0,211.2.494a1.411,1.411,0,0,0,.611,2.755,18.09,18.09,0,0,1,10.254.725c5.116,1.907,8.987,5.672,11.587,11.241a4.507,4.507,0,0,0-4.659,4.8,1.411,1.411,0,0,0,1.407,1.319l.094,0a1.411,1.411,0,0,0,1.316-1.5,1.684,1.684,0,1,1,3.361-.221,1.4,1.4,0,0,0,.428.921,51.316,51.316,0,0,1,1.521,7.964c1.318,11.4-.339,24.076-1.961,32.707a1.411,1.411,0,1,0,2.774.521,146.928,146.928,0,0,0,2.275-17.787l.844-.865C246.216,37.788,252.072,31.8,250.193,26.255Zm-10.166,2.9c1.613-1.261,4.916-3.614,6.555-3.144.167.048.609.174.938,1.146,1.189,3.51-3.083,8.356-7.133,12.545A85.574,85.574,0,0,0,240.027,29.159Z" transform="translate(-130.757 0)"/>
    </g>
  </g>
</svg>
