<?xml version="1.0" encoding="iso-8859-1"?>
<!-- Generator: Adobe Illustrator 19.0.0, SVG Export Plug-In . SVG Version: 6.00 Build 0)  -->
<svg xmlns="http://www.w3.org/2000/svg" xmlns:xlink="http://www.w3.org/1999/xlink" version="1.1" id="Capa_1" x="0px" y="0px" viewBox="0 0 512 512" style="enable-background:new 0 0 512 512;" xml:space="preserve" width="512px" height="512px">
<g>
	<g>
		<path d="M256,0C114.842,0,0,114.842,0,256s114.842,256,256,256s256-114.842,256-256S397.158,0,256,0z M256,494.933    C124.254,494.933,17.067,387.746,17.067,256S124.254,17.067,256,17.067S494.933,124.254,494.933,256S387.746,494.933,256,494.933z    " fill="#254B72"/>
	</g>
</g>
<g>
	<g>
		<path d="M389.598,104.499c-3.558-3.098-8.951-2.731-12.041,0.836c-3.089,3.55-2.722,8.943,0.836,12.032    c42.146,36.685,65.348,85.914,65.34,138.633c0,4.71,3.814,8.533,8.533,8.533c4.71,0,8.533-3.814,8.533-8.533    C460.809,198.272,435.533,144.469,389.598,104.499z" fill="#254B72"/>
	</g>
</g>
<g>
	<g>
		<path d="M327.023,63.846C304.307,55.467,280.414,51.209,256,51.2c-4.71,0-8.533,3.814-8.533,8.533c0,4.71,3.823,8.533,8.533,8.533    c22.391,0.009,44.297,3.908,65.109,11.597c0.981,0.358,1.98,0.529,2.961,0.529c3.465,0,6.733-2.133,7.996-5.581    C333.705,70.391,331.443,65.476,327.023,63.846z" fill="#254B72"/>
	</g>
</g>
<g>
	<g>
		<path d="M133.478,394.522C90.803,358.793,68.25,310.895,68.267,256c0-4.71-3.823-8.533-8.533-8.533S51.2,251.281,51.2,256    c-0.017,60.109,24.644,112.538,71.322,151.612c1.604,1.34,3.541,1.988,5.478,1.988c2.432,0,4.855-1.041,6.545-3.063    C137.566,402.927,137.088,397.542,133.478,394.522z" fill="#254B72"/>
	</g>
</g>
<g>
	<g>
		<path d="M256,443.733c-21.077,0-41.779-3.464-61.517-10.3c-4.463-1.544-9.31,0.819-10.854,5.274    c-1.536,4.446,0.819,9.301,5.274,10.854C210.441,457.02,233.02,460.8,256,460.8c4.71,0,8.533-3.814,8.533-8.533    C264.533,447.548,260.71,443.733,256,443.733z" fill="#254B72"/>
	</g>
</g>
<g>
	<g>
		<path d="M336.981,248.568l-136.533-76.8c-2.645-1.493-5.871-1.459-8.491,0.068s-4.224,4.335-4.224,7.364v153.6    c0,3.029,1.604,5.837,4.224,7.364c1.331,0.777,2.825,1.169,4.309,1.169c1.442,0,2.884-0.367,4.181-1.101l136.533-76.8    c2.688-1.51,4.352-4.352,4.352-7.433C341.333,252.919,339.669,250.078,336.981,248.568z M204.8,318.208V193.792L315.392,256    L204.8,318.208z" fill="#254B72"/>
	</g>
</g>
<g>
</g>
<g>
</g>
<g>
</g>
<g>
</g>
<g>
</g>
<g>
</g>
<g>
</g>
<g>
</g>
<g>
</g>
<g>
</g>
<g>
</g>
<g>
</g>
<g>
</g>
<g>
</g>
<g>
</g>
</svg>
