<?xml version="1.0" encoding="iso-8859-1"?>
<!-- Generator: Adobe Illustrator 19.0.0, SVG Export Plug-In . SVG Version: 6.00 Build 0)  -->
<svg version="1.1" id="Capa_1" xmlns="http://www.w3.org/2000/svg" xmlns:xlink="http://www.w3.org/1999/xlink" x="0px" y="0px"
	 viewBox="0 0 512.001 512.001" style="enable-background:new 0 0 512.001 512.001;" xml:space="preserve">
<path style="fill:#F9F6ED;" d="M72.099,59.02c-7.9,0-14.304,6.404-14.304,14.304c0,51.542,0,352.125,0,416.824
	c0,8.04,6.59,14.304,14.304,14.304c11.219,0,182.875,0,194.565,0c18.656,0,36.547-7.411,49.74-20.602l40.629-40.629
	c10.494-10.493,16.388-24.725,16.388-39.564c0-45.802,0-304.646,0-344.638C313.923,59.02,175.52,59.02,72.099,59.02z"/>
<g>
	<path style="fill:#EAE4D6;" d="M350.923,426.833c-44.664,0-41.813-0.184-44.516,0.5l0,0c-6.106,1.632-10.608,7.186-10.608,13.804
		v33.922c-0.009,1.834-0.7,29.393-33.806,29.393h4.67c38.535,0,55.706-28.508,64.356-35.219l0,0l26.013-26.013
		c9.826-9.826,15.822-23.224,16.33-37.604C372.385,423.046,358.385,426.328,350.923,426.833z"/>
	<path style="fill:#EAE4D6;" d="M373.362,405.617c0.035-0.636,0.058-1.286,0.058-1.96
		C373.42,404.313,373.384,404.964,373.362,405.617z"/>
</g>
<path style="fill:#EFECE4;" d="M87.793,490.149c0-64.699,0-365.283,0-416.824c0-7.901,6.404-14.304,14.304-14.304
	c-10.246,0-20.277,0-29.999,0c-7.9,0-14.304,6.404-14.304,14.304c0,51.542,0,352.125,0,416.824c0,8.04,6.591,14.304,14.304,14.304
	c2.618,0,13.976,0,29.999,0C94.384,504.453,87.793,498.189,87.793,490.149z"/>
<path style="fill:#E2D9C7;" d="M325.798,474.308v-33.171c0-6.62,4.503-12.172,10.608-13.804h-0.001
	c1.306-0.331,1.316-0.458,6.019-0.502c-35.794-0.019-33.499-0.135-36.017,0.502h0.001c-6.106,1.632-10.608,7.186-10.608,13.804
	v33.922c-0.009,1.834-0.7,29.393-33.806,29.393h4.67C298.649,504.453,315.907,484.823,325.798,474.308z"/>
<path style="fill:#F94A46;" d="M449.916,76.298l-6.52-6.357c-4.331-4.221-6.306-10.3-5.284-16.261l1.511-8.811
	c0.987-5.752-2.948-11.195-8.747-12.038c-4.424-1.305-16.952,0.419-22.758-11.347l-4.038-8.18c-2.588-5.244-8.977-7.32-14.152-4.599
	c-4.346,1.544-13.444,10.291-25.058,4.185l-7.961-4.185c-5.104-2.683-11.532-0.709-14.151,4.599
	c-2.637,3.852-4.869,16.341-17.87,18.23l-8.926,1.297c-5.788,0.841-9.736,6.276-8.747,12.038c0.122,4.57,5.619,15.918-3.773,25.072
	l-6.521,6.357c-4.188,4.081-4.187,10.8,0,14.88l6.521,6.356c9.445,9.207,3.897,20.434,3.773,25.073
	c-0.989,5.765,2.96,11.197,8.747,12.038c4.416,1.303,16.951-0.418,22.758,11.347l4.038,8.181c1.845,3.738,5.569,5.798,9.332,5.798
	c4.016,0,5.866-2.037,12.78-5.385c5.353-2.815,11.744-2.815,17.097,0l7.96,4.185c5.167,2.716,11.559,0.656,14.152-4.598l4.038-8.181
	c2.676-5.424,7.848-9.181,13.832-10.051l8.926-1.297c5.787-0.841,9.736-6.275,8.747-12.038l-1.511-8.811
	c-1.022-5.961,0.953-12.039,5.284-16.261l6.521-6.356C454.104,87.097,454.104,80.38,449.916,76.298z"/>
<path style="fill:#EA3B3B;" d="M337.312,113.508c-20.412-35.354-9.284-80.261,24.652-102.146l-5.053-2.656
	c-5.104-2.683-11.532-0.709-14.151,4.599c-2.637,3.852-4.869,16.341-17.87,18.23l-8.926,1.297
	c-5.788,0.841-9.736,6.276-8.747,12.038c0.122,4.57,5.618,15.918-3.773,25.072l-6.521,6.357c-4.188,4.081-4.187,10.8,0,14.88
	l6.521,6.356c9.445,9.207,3.897,20.434,3.773,25.072c-0.989,5.765,2.96,11.197,8.747,12.038c4.416,1.303,16.951-0.418,22.758,11.347
	l4.038,8.181c1.845,3.738,5.57,5.798,9.332,5.798c4.016,0,5.866-2.037,12.78-5.385c5.353-2.815,11.744-2.815,17.097,0l7.96,4.185
	c5.167,2.716,11.559,0.656,14.152-4.598l1.264-2.562C378.322,152.302,351.778,138.565,337.312,113.508z"/>
<path d="M373.995,97.497c4.143,0,7.5-3.358,7.5-7.5V47.999c0-4.143-3.357-7.5-7.5-7.5s-7.5,3.357-7.5,7.5v41.998
	C366.496,94.139,369.852,97.497,373.995,97.497z"/>
<path d="M380.23,119.156c1.674-2.487,1.701-5.793,0-8.32c-3.241-4.914-10.788-4.319-13.159,1.29c-1.22,2.885-0.437,6.129,1.62,8.17
	C372.066,123.681,377.67,123.037,380.23,119.156z"/>
<path d="M316.646,219.905H189.652c-4.143,0-7.5,3.357-7.5,7.5c0,4.143,3.357,7.5,7.5,7.5h126.994c4.143,0,7.5-3.357,7.5-7.5
	C324.145,223.262,320.789,219.905,316.646,219.905z"/>
<path d="M316.646,250.945H189.652c-4.143,0-7.5,3.357-7.5,7.5c0,4.143,3.357,7.5,7.5,7.5h126.994c4.143,0,7.5-3.357,7.5-7.5
	S320.789,250.945,316.646,250.945z"/>
<path d="M316.646,313.026H189.652c-4.143,0-7.5,3.357-7.5,7.5s3.357,7.5,7.5,7.5h126.994c4.143,0,7.5-3.357,7.5-7.5
	S320.789,313.026,316.646,313.026z"/>
<path d="M316.646,281.986H189.652c-4.143,0-7.5,3.358-7.5,7.5c0,4.143,3.357,7.5,7.5,7.5h126.994c4.143,0,7.5-3.357,7.5-7.5
	C324.145,285.343,320.789,281.986,316.646,281.986z"/>
<path d="M189.652,390.106h126.994c4.143,0,7.5-3.357,7.5-7.5c0-4.142-3.357-7.5-7.5-7.5H189.652c-4.143,0-7.5,3.358-7.5,7.5
	C182.152,386.748,185.51,390.106,189.652,390.106z"/>
<path d="M316.646,344.066H189.652c-4.143,0-7.5,3.358-7.5,7.5c0,4.143,3.357,7.5,7.5,7.5h126.994c4.143,0,7.5-3.357,7.5-7.5
	C324.145,347.423,320.789,344.066,316.646,344.066z"/>
<path d="M108.252,227.404c0,4.143,3.357,7.5,7.5,7.5h33.805c4.143,0,7.5-3.357,7.5-7.5c0-4.143-3.357-7.5-7.5-7.5h-33.805
	C111.609,219.905,108.252,223.262,108.252,227.404z"/>
<path d="M149.557,250.945h-33.805c-4.143,0-7.5,3.357-7.5,7.5c0,4.143,3.357,7.5,7.5,7.5h33.805c4.143,0,7.5-3.357,7.5-7.5
	S153.699,250.945,149.557,250.945z"/>
<path d="M149.557,313.026h-33.805c-4.143,0-7.5,3.357-7.5,7.5s3.357,7.5,7.5,7.5h33.805c4.143,0,7.5-3.357,7.5-7.5
	S153.699,313.026,149.557,313.026z"/>
<path d="M149.557,281.986h-33.805c-4.143,0-7.5,3.358-7.5,7.5c0,4.143,3.357,7.5,7.5,7.5h33.805c4.143,0,7.5-3.357,7.5-7.5
	C157.057,285.343,153.699,281.986,149.557,281.986z"/>
<path d="M149.557,375.107h-33.805c-4.143,0-7.5,3.358-7.5,7.5c0,4.143,3.357,7.5,7.5,7.5h33.805c4.143,0,7.5-3.357,7.5-7.5
	C157.057,378.464,153.699,375.107,149.557,375.107z"/>
<path d="M149.557,344.066h-33.805c-4.143,0-7.5,3.358-7.5,7.5c0,4.143,3.357,7.5,7.5,7.5h33.805c4.143,0,7.5-3.357,7.5-7.5
	C157.057,347.423,153.699,344.066,149.557,344.066z"/>
<path d="M249.39,175.869h-66.415c-4.143,0-7.5,3.357-7.5,7.5c0,4.143,3.357,7.5,7.5,7.5h66.415c4.143,0,7.5-3.357,7.5-7.5
	C256.889,179.226,253.532,175.869,249.39,175.869z"/>
<path d="M142.654,59.02c0,4.143,3.357,7.5,7.5,7.5h146.632c-0.193,0.188-4.759,4.639-4.521,4.407l0,0
	c-3.383,3.74-5.406,7.456-5.407,12.809c0,10.612,8.175,14.669,11.926,19.169c7.863,7.663-1.457,16.241,2.301,27.228
	c2.126,6.219,7.533,10.942,14.375,11.935l8.925,1.297c8.234,1.196,9.118,9.257,12.225,14.128c3.038,6.155,9.19,9.979,16.057,9.979
	c5.648,0,8.81-2.386,13.828-5.013v47.446c0,4.143,3.357,7.5,7.5,7.5s7.5-3.357,7.5-7.5v-47.397
	c3.288,1.244,9.699,7.231,19.378,4.084c10.076-3.273,11.469-12.383,14.548-17.279c5.472-11.089,19.877-1.853,29.015-14.43
	c9.132-12.565-4.084-23.343,4.773-31.978c3.849-4.617,11.922-8.54,11.922-19.166c0-10.612-8.151-14.643-11.922-19.167
	c-5.971-5.819-1.944-12.904-1.615-18.435c1.699-9.911-5.073-19.276-15.061-20.728l-8.926-1.297
	c-8.241-1.199-9.055-9.158-12.224-14.128c-4.459-9.035-15.452-12.604-24.366-7.918c-5.26,2.064-10.734,8.049-18.08,4.185
	c-5.001-1.983-11.746-8.633-21.827-5.359c-10.072,3.273-11.422,12.318-14.537,17.272c-5.472,11.089-19.876,1.854-29.015,14.43
	c-5.922,8.151-2.356,15.985-2.234,18.926H150.153C146.012,51.52,142.654,54.878,142.654,59.02z M317.617,40.253
	c4.065-1.289,20.542,0.485,28.406-15.449c3.838-6.992,3.644-8.97,5.724-9.647c4.416-1.445,16.421,13.762,34.288,4.371
	c6.822-3.154,8.057-5.073,10.2-4.378c2.13,0.688,1.979,2.914,5.736,9.652c3.768,7.638,11.049,12.928,19.479,14.153
	c7.357,1.452,9.527,0.637,10.851,2.455c1.319,1.815-0.108,3.516-1.002,11.003c-3.404,19.838,14.833,26.72,14.833,31.326
	c0,4.702-18.261,11.349-14.833,31.327c0.889,7.447,2.324,9.181,1.003,11c-2.744,3.776-21.364-1.563-30.331,16.609
	c-3.732,6.695-3.595,8.959-5.733,9.652c-2.128,0.698-3.341-1.203-10.201-4.376c-16.089-8.462-28.699,3.328-32.731,4.443
	c-1.078,0.298-2.579-0.188-3.245-1.539l-4.038-8.181c-6.917-14.015-21.806-14.343-22.455-14.585
	c-4.521-0.985-6.604-0.274-7.877-2.026c-1.811-2.498,1.945-9.35,1.29-17.437c-1.274-15.915-15.122-20.654-15.122-24.889
	c0-3.663,10.605-7.629,14.132-19.606c2.321-7.828,0.301-12.797-0.807-20.53C315.004,42.552,315.994,40.489,317.617,40.253z"/>
<path d="M243.731,511.953c5.158,0.019,25.393,0.144,30.472-0.32c18.046-1.591,34.938-9.368,48.079-22.478
	c42.531-42.566,40.678-40.598,42.548-42.645c11.09-12.083,16.664-27.398,16.664-42.852V244.904c0-4.143-3.357-7.5-7.5-7.5
	s-7.5,3.357-7.5,7.5c-0.007,64.792,0.019,158.635-0.033,159.923c-0.523,8.591-4.674,13.716-15.23,14.508
	c-42.567,0.03-42.491-0.302-46.239,0.769c-9.492,2.564-16.117,11.204-16.117,21.035c-0.058,35.098,1.126,37.939-3.406,45.421
	c-12.802,21.141-49.237,0.517-49.237,17.894C236.231,508.596,239.589,511.953,243.731,511.953z M303.874,441.138
	c0-3.068,2.074-5.765,5.045-6.559c2.865-0.781,40.64,0.302,46.974-0.696c-0.955,1.222-2.362,2.81-3.589,4.035
	c-40.125,40.126-42.393,43.331-50.439,48.614C304.783,477.667,303.742,474.9,303.874,441.138z"/>
<path d="M115.155,51.52H72.673c-12.023,0-21.804,9.781-21.804,21.804V490.15c0,9.85,6.65,18.505,16.167,21.048
	c4.226,1.137-5.656,0.724,141.697,0.756c4.143,0,7.5-3.357,7.5-7.5s-3.357-7.5-7.5-7.5H72.674c-3.722,0-6.806-3.048-6.806-6.805
	V73.324c0-3.752,3.053-6.805,6.805-6.805h42.482c4.143,0,7.5-3.358,7.5-7.5C122.655,54.878,119.298,51.52,115.155,51.52z"/>
<g>
</g>
<g>
</g>
<g>
</g>
<g>
</g>
<g>
</g>
<g>
</g>
<g>
</g>
<g>
</g>
<g>
</g>
<g>
</g>
<g>
</g>
<g>
</g>
<g>
</g>
<g>
</g>
<g>
</g>
</svg>
