<svg xmlns="http://www.w3.org/2000/svg" xmlns:xlink="http://www.w3.org/1999/xlink" viewBox="5445 -62 300 300">
  <defs>
    <style>
      .cls-1 {
        clip-path: url(#clip-mic);
      }

      .cls-2 {
        fill: #4b606c;
      }

      .cls-3 {
        fill: #647a84;
      }

      .cls-4 {
        fill: #a9b1b5;
      }

      .cls-5 {
        fill: #939ea4;
      }

      .cls-6 {
        fill: #c9cfd1;
      }

      .cls-7 {
        fill: #30303a;
      }
    </style>
    <clipPath id="clip-mic">
      <rect x="5445" y="-62" width="300" height="300"/>
    </clipPath>
  </defs>
  <g id="mic" class="cls-1">
    <g id="_009-technology-3" data-name="009-technology-3" transform="translate(5424.244 -25)">
      <path id="Path_138" data-name="Path 138" class="cls-2" d="M248.82,374.2v37.552H192.632V374.2" transform="translate(-49.474 -208.301)"/>
      <path id="Path_139" data-name="Path 139" class="cls-3" d="M221.99,372.136v62.007h30.152V372.136" transform="translate(-65.816 -207.153)"/>
      <path id="Path_140" data-name="Path 140" class="cls-2" d="M221.99,372.136v62.007h11.279V372.136" transform="translate(-65.816 -207.153)"/>
      <path id="Path_141" data-name="Path 141" class="cls-4" d="M239.623,33.684v122.47a23.1,23.1,0,0,1-19.9,22.852,316.1,316.1,0,0,1-88.335,0,23.1,23.1,0,0,1-19.9-22.852V33.684a23.1,23.1,0,0,1,19.9-22.856q2.1-.295,4.2-.562,8.888-1.138,17.813-1.759,6.62-.473,13.248-.653,8.908-.253,17.817,0,6.627.185,13.248.653,8.929.624,17.817,1.764,2.1.261,4.194.557A23.1,23.1,0,0,1,239.623,33.684Z" transform="translate(-4.301 -4.302)"/>
      <path id="Path_142" data-name="Path 142" class="cls-5" d="M148.054,179a124.305,124.305,0,0,0,27.5,3.1,316.473,316.473,0,0,1-44.168-3.1,23.1,23.1,0,0,1-19.9-22.852V33.682a23.1,23.1,0,0,1,19.9-22.856q2.1-.295,4.2-.562,8.888-1.138,17.813-1.759,6.62-.473,13.248-.653,4.454-.123,8.908-.128-2.775,0-5.546.128-4.125.185-8.246.653-5.557.624-11.092,1.759c-.872.178-1.741.365-2.613.562-7.1,1.613-12.39,11.339-12.39,22.856v122.47C135.664,167.665,140.954,177.391,148.054,179Z" transform="translate(-4.301 -4.3)"/>
      <path id="Path_143" data-name="Path 143" class="cls-6" d="M283.493,179a124.3,124.3,0,0,1-27.5,3.1,316.277,316.277,0,0,0,39.945-2.545c.876-.179,1.753-.36,2.628-.557,7.1-1.613,12.39-11.339,12.39-22.852V33.682c0-11.517-5.29-21.243-12.39-22.856-.872-.2-1.741-.384-2.613-.562l-.015,0q-8.875-1.135-17.788-1.756-6.619-.473-13.248-.653Q260.45,7.729,256,7.724q2.775,0,5.546.128,4.125.185,8.246.653,5.557.624,11.092,1.759c.872.178,1.741.365,2.613.562,7.1,1.613,12.39,11.339,12.39,22.856v122.47C295.883,167.665,290.592,177.391,283.493,179Z" transform="translate(-84.746 -4.3)"/>
      <g id="Group_70" data-name="Group 70" transform="translate(107.182 3.426)">
        <path id="Path_144" data-name="Path 144" class="cls-7" d="M158.078,108.346h-46.6V90.53h46.6a8.908,8.908,0,0,1,8.908,8.908h0A8.909,8.909,0,0,1,158.078,108.346Z" transform="translate(-111.483 -53.82)"/>
        <path id="Path_145" data-name="Path 145" class="cls-7" d="M284.225,108.346h46.6V90.53h-46.6a8.908,8.908,0,0,0-8.908,8.908h0A8.908,8.908,0,0,0,284.225,108.346Z" transform="translate(-202.683 -53.82)"/>
        <path id="Path_146" data-name="Path 146" class="cls-7" d="M158.078,178.413h-46.6V160.6h46.6a8.908,8.908,0,0,1,8.908,8.908h0A8.909,8.909,0,0,1,158.078,178.413Z" transform="translate(-111.483 -92.824)"/>
        <path id="Path_147" data-name="Path 147" class="cls-7" d="M284.225,178.413h46.6V160.6h-46.6a8.908,8.908,0,0,0-8.908,8.908h0A8.908,8.908,0,0,0,284.225,178.413Z" transform="translate(-202.683 -92.824)"/>
        <path id="Path_148" data-name="Path 148" class="cls-7" d="M158.078,248.481h-46.6V230.665h46.6a8.908,8.908,0,0,1,8.908,8.908h0A8.909,8.909,0,0,1,158.078,248.481Z" transform="translate(-111.483 -131.828)"/>
        <path id="Path_149" data-name="Path 149" class="cls-7" d="M284.225,248.481h46.6V230.665h-46.6a8.908,8.908,0,0,0-8.908,8.908h0A8.908,8.908,0,0,0,284.225,248.481Z" transform="translate(-202.683 -131.828)"/>
        <path id="Path_150" data-name="Path 150" class="cls-7" d="M158.078,318.549h-46.6V300.733h46.6a8.908,8.908,0,0,1,8.908,8.908h0A8.909,8.909,0,0,1,158.078,318.549Z" transform="translate(-111.483 -170.832)"/>
        <path id="Path_151" data-name="Path 151" class="cls-7" d="M284.225,318.549h46.6V300.733h-46.6a8.908,8.908,0,0,0-8.908,8.908h0A8.908,8.908,0,0,0,284.225,318.549Z" transform="translate(-202.683 -170.832)"/>
        <path id="Path_152" data-name="Path 152" class="cls-7" d="M323.79,11.25v11.9a8.908,8.908,0,1,1-17.817,0V9.486Q314.9,10.11,323.79,11.25Z" transform="translate(-219.748 -8.706)"/>
        <path id="Path_153" data-name="Path 153" class="cls-7" d="M253.718,7.854V22.167a8.908,8.908,0,1,1-17.817,0V7.854Q244.809,7.6,253.718,7.854Z" transform="translate(-180.742 -7.727)"/>
        <path id="Path_154" data-name="Path 154" class="cls-7" d="M183.652,9.486v13.66a8.906,8.906,0,1,1-17.812,0v-11.9Q174.729,10.107,183.652,9.486Z" transform="translate(-141.741 -8.706)"/>
      </g>
      <path id="Path_155" data-name="Path 155" d="M215.894,3.133c-1.514-.213-2.9-.4-4.233-.563-5.912-.762-11.974-1.361-18.01-1.783-4.368-.312-8.876-.535-13.4-.661-5.974-.17-12.034-.17-18.01,0-4.523.126-9.03.348-13.392.66-6.016.42-12.075,1.018-18.005,1.778q-2.127.27-4.246.568a26.657,26.657,0,0,0-22.847,26.248v122.47A26.655,26.655,0,0,0,126.6,178.1q6.552.924,13.129,1.565v23.787a3.426,3.426,0,0,0,3.426,3.426h9.589V226.99H159.6V181.015q5.824.212,11.651.216t11.648-.216V226.99h6.853V206.875h9.594a3.426,3.426,0,0,0,3.426-3.426V179.662q6.574-.652,13.126-1.565a26.658,26.658,0,0,0,22.852-26.244V29.382A26.66,26.66,0,0,0,215.894,3.133ZM196.833,7.906c3.674.3,7.337.669,10.964,1.1v8.86a5.482,5.482,0,1,1-10.965,0V7.906Zm-20.1-1V17.865a5.482,5.482,0,1,1-10.965,0V6.906c1.825-.032,3.653-.054,5.483-.054S174.907,6.874,176.732,6.906ZM134.707,9c3.631-.428,7.293-.8,10.96-1.1v9.959a5.48,5.48,0,1,1-10.959,0V9Zm-24.1,127.751h43.169a5.481,5.481,0,0,1,0,10.963H110.608Zm0-31.064h43.169a5.481,5.481,0,0,1,0,10.963H110.608Zm0-31.064h43.169a5.481,5.481,0,0,1,0,10.963H110.608Zm42.139,125.4h-6.162V180.266q3.08.239,6.162.419Zm43.172,0h-6.167V180.685q3.085-.179,6.167-.419Zm19.02-28.711a312.561,312.561,0,0,1-87.377,0A19.8,19.8,0,0,1,110.8,154.569h42.715a12.506,12.506,0,0,0,12.591-11.96A12.348,12.348,0,0,0,153.776,129.9H110.607v-6.4h42.907a12.506,12.506,0,0,0,12.591-11.96,12.348,12.348,0,0,0-12.329-12.708H110.607v-6.4h42.907a12.506,12.506,0,0,0,12.591-11.96,12.348,12.348,0,0,0-12.329-12.708H110.607v-6.4h42.907a12.506,12.506,0,0,0,12.591-11.96,12.348,12.348,0,0,0-12.329-12.708H141.184a3.426,3.426,0,0,0-3.426,3.426h0a3.426,3.426,0,0,0,3.426,3.426h12.432a5.589,5.589,0,0,1,5.618,4.953,5.488,5.488,0,0,1-5.457,6.01H110.608V43.562H125.2a3.426,3.426,0,0,0,3.426-3.426h0a3.426,3.426,0,0,0-3.426-3.426H110.608V29.382A19.772,19.772,0,0,1,127.558,9.919l.3-.039V17.6a12.682,12.682,0,0,0,3.37,8.739,12.267,12.267,0,0,0,9.239,3.858A12.5,12.5,0,0,0,152.519,17.6V7.414c2.111-.127,4.247-.233,6.4-.317V17.6a12.681,12.681,0,0,0,3.37,8.739,12.265,12.265,0,0,0,9.239,3.857,12.508,12.508,0,0,0,12.061-12.6V7.1c2.148.085,4.284.19,6.4.317V17.6a12.681,12.681,0,0,0,3.37,8.739A12.265,12.265,0,0,0,202.59,30.2,12.508,12.508,0,0,0,214.65,17.6V9.879l.288.04A19.775,19.775,0,0,1,231.9,29.383v7.327h-42.91A12.506,12.506,0,0,0,176.4,48.67a12.348,12.348,0,0,0,12.329,12.708H231.9v6.4h-42.91A12.506,12.506,0,0,0,176.4,79.733a12.348,12.348,0,0,0,12.329,12.708H231.9v6.4h-42.91A12.506,12.506,0,0,0,176.4,110.8,12.348,12.348,0,0,0,188.725,123.5h10.023a3.426,3.426,0,0,0,3.426-3.426h0a3.426,3.426,0,0,0-3.426-3.426h-9.863a5.589,5.589,0,0,1-5.618-4.953,5.488,5.488,0,0,1,5.457-6.01h43.169v10.963H214.736a3.426,3.426,0,0,0-3.426,3.426h0a3.426,3.426,0,0,0,3.426,3.426h17.159v6.4h-42.91a12.506,12.506,0,0,0-12.591,11.96,12.348,12.348,0,0,0,12.329,12.708H231.7A19.8,19.8,0,0,1,214.939,171.312Zm16.955-127.75V54.525h-43.17a5.481,5.481,0,0,1,0-10.963h43.17Zm0,31.063V85.588h-43.17a5.481,5.481,0,0,1,0-10.963Zm0,73.092h-43.17a5.481,5.481,0,0,1,0-10.963h43.169v10.963Z" transform="translate(0 0)"/>
    </g>
  </g>
</svg>
