<svg xmlns="http://www.w3.org/2000/svg" xmlns:xlink="http://www.w3.org/1999/xlink" viewBox="6185 -62 300 300">
  <defs>
    <style>
      .cls-1 {
        clip-path: url(#clip-money);
      }

      .cls-2 {
        fill: #525263;
      }

      .cls-3 {
        fill: #302c49;
      }

      .cls-4 {
        fill: #4c5e66;
      }

      .cls-5 {
        fill: #6c8188;
      }

      .cls-6 {
        fill: #f2f2f2;
      }

      .cls-7 {
        fill: #f6b545;
      }

      .cls-8 {
        fill: #ffcb5b;
      }

      .cls-9 {
        fill: #f19920;
      }

      .cls-10 {
        fill: #c97629;
      }

      .cls-11 {
        fill: #b06328;
      }

      .cls-12 {
        fill: #ffe278;
      }

      .cls-13 {
        fill: #ffe27a;
      }

      .cls-14 {
        fill: #e78825;
      }

      .cls-15 {
        fill: #0e9347;
      }

      .cls-16 {
        fill: #0d8944;
      }

      .cls-17 {
        fill: #3bb54a;
      }

      .cls-18 {
        fill: #89c763;
      }

      .cls-19 {
        fill: #ffca5d;
      }

      .cls-20 {
        fill: #f15249;
      }

      .cls-21 {
        fill: #ad0e0e;
      }

      .cls-22 {
        fill: #fff;
      }

      .cls-23 {
        fill: #efefef;
      }

      .cls-24 {
        fill: none;
        stroke: #000;
        stroke-width: 4px;
      }
    </style>
    <clipPath id="clip-money">
      <rect x="6185" y="-62" width="300" height="300"/>
    </clipPath>
  </defs>
  <g id="money" class="cls-1">
    <g id="_012-laptop" data-name="012-laptop" transform="translate(6197 -73.472)">
      <path id="Path_231" data-name="Path 231" class="cls-2" d="M255.809,409.4H27.246A19.643,19.643,0,0,1,7.6,389.752V380.7H275.451v9.054A19.642,19.642,0,0,1,255.809,409.4Z" transform="translate(-3.504 -142.966)"/>
      <path id="Path_232" data-name="Path 232" class="cls-3" d="M259.2,78.076H52.071A12.452,12.452,0,0,0,39.619,90.528V241.237H271.652V90.528A12.453,12.453,0,0,0,259.2,78.076Z" transform="translate(-18.258 -3.504)"/>
      <rect id="Rectangle_75" data-name="Rectangle 75" class="cls-4" width="201.422" height="132.552" transform="translate(36.663 89.878)"/>
      <path id="Path_233" data-name="Path 233" class="cls-5" d="M336.617,106.462V239.014H248.3l-34.5-132.552Z" transform="translate(-98.531 -16.586)"/>
      <path id="Path_234" data-name="Path 234" class="cls-6" d="M249.708,395.047H212.533a10.52,10.52,0,0,1-10.519-10.519V380.7h58.213v3.829A10.519,10.519,0,0,1,249.708,395.047Z" transform="translate(-93.097 -142.966)"/>
      <path id="Path_235" data-name="Path 235" d="M271.948,233.633H257.493V87.024a16.552,16.552,0,0,0-16.552-16.552H33.813A16.552,16.552,0,0,0,17.261,87.024V233.633H4.1a4.1,4.1,0,0,0-4.1,4.1v9.054A23.743,23.743,0,0,0,23.743,270.53H178.2a4.1,4.1,0,0,0,4.1-4.1h0a4.1,4.1,0,0,0-4.1-4.1H23.743A15.544,15.544,0,0,1,8.2,246.787v-4.954h96.624a14.634,14.634,0,0,0,14.613,14.349h37.175a14.634,14.634,0,0,0,14.613-14.349h96.625v4.954a15.543,15.543,0,0,1-15.543,15.543H197.335a4.1,4.1,0,0,0-4.1,4.1h0a4.1,4.1,0,0,0,4.1,4.1h54.971a23.743,23.743,0,0,0,23.743-23.743v-9.054A4.1,4.1,0,0,0,271.948,233.633ZM156.611,247.981H119.436a6.427,6.427,0,0,1-6.414-6.149h50A6.427,6.427,0,0,1,156.611,247.981ZM25.461,233.633V87.024a8.362,8.362,0,0,1,8.353-8.353H240.941a8.362,8.362,0,0,1,8.353,8.353V233.633Z"/>
      <path id="Path_236" data-name="Path 236" d="M265.924,98.861H107.1a4.1,4.1,0,0,0-4.1,4.1h0a4.1,4.1,0,0,0,4.1,4.1H261.825V231.41H68.6V107.06H87.967a4.1,4.1,0,0,0,4.1-4.1h0a4.1,4.1,0,0,0-4.1-4.1H64.5a4.1,4.1,0,0,0-4.1,4.1V235.51a4.1,4.1,0,0,0,4.1,4.1H265.924a4.1,4.1,0,0,0,4.1-4.1V102.961A4.1,4.1,0,0,0,265.924,98.861Z" transform="translate(-27.836 -13.083)"/>
    </g>
    <g id="_014-money-bag" data-name="014-money-bag" transform="translate(6185.186 77.405)">
      <path id="Path_237" data-name="Path 237" class="cls-7" d="M58.971,464.074H2.564A2.422,2.422,0,0,1,0,461.51v-5.128a2.422,2.422,0,0,1,2.564-2.564H58.971a2.422,2.422,0,0,1,2.564,2.564v5.128A2.422,2.422,0,0,1,58.971,464.074Z" transform="translate(0 -344.751)"/>
      <path id="Path_238" data-name="Path 238" class="cls-8" d="M48.715,456.383H0a2.422,2.422,0,0,1,2.564-2.564H48.715Z" transform="translate(0 -344.752)"/>
      <g id="Group_83" data-name="Group 83" transform="translate(0 111.631)">
        <path id="Path_239" data-name="Path 239" class="cls-9" d="M48.715,465.454v2.564a2.422,2.422,0,0,1-2.564,2.564H0a2.422,2.422,0,0,0,2.564,2.564H58.971a2.422,2.422,0,0,0,2.564-2.564v-5.128H48.715Z" transform="translate(0 -465.454)"/>
        <path id="Path_240" data-name="Path 240" class="cls-9" d="M25.837,470.582v-3.846a1.282,1.282,0,1,0-2.564,0v3.846" transform="translate(-18.145 -465.454)"/>
        <path id="Path_241" data-name="Path 241" class="cls-9" d="M60.746,470.582v-3.846a1.282,1.282,0,1,0-2.564,0v3.846" transform="translate(-45.362 -465.454)"/>
        <path id="Path_242" data-name="Path 242" class="cls-9" d="M95.655,470.582v-3.846a1.282,1.282,0,1,0-2.564,0v3.846" transform="translate(-72.579 -465.454)"/>
        <path id="Path_243" data-name="Path 243" class="cls-9" d="M130.564,470.582v-3.846a1.282,1.282,0,1,0-2.564,0v3.846" transform="translate(-99.796 -465.454)"/>
        <path id="Path_244" data-name="Path 244" class="cls-9" d="M165.473,470.582v-3.846a1.282,1.282,0,1,0-2.564,0v3.846" transform="translate(-127.014 -465.454)"/>
        <path id="Path_245" data-name="Path 245" class="cls-9" d="M200.383,470.582v-3.846a1.282,1.282,0,1,0-2.564,0v3.846" transform="translate(-154.231 -465.454)"/>
      </g>
      <path id="Path_246" data-name="Path 246" class="cls-7" d="M82.244,417.529H25.837a2.422,2.422,0,0,1-2.564-2.564v-5.128a2.422,2.422,0,0,1,2.564-2.564H82.244a2.422,2.422,0,0,1,2.564,2.564v5.128A2.422,2.422,0,0,1,82.244,417.529Z" transform="translate(-18.145 -308.462)"/>
      <path id="Path_247" data-name="Path 247" class="cls-8" d="M71.988,409.837H23.273a2.422,2.422,0,0,1,2.564-2.564H71.988Z" transform="translate(-18.145 -308.462)"/>
      <g id="Group_84" data-name="Group 84" transform="translate(5.128 101.375)">
        <path id="Path_248" data-name="Path 248" class="cls-9" d="M71.988,418.908v2.564a2.422,2.422,0,0,1-2.564,2.564H23.273a2.422,2.422,0,0,0,2.564,2.564H82.244a2.422,2.422,0,0,0,2.564-2.564v-5.128H71.988Z" transform="translate(-23.273 -418.908)"/>
        <path id="Path_249" data-name="Path 249" class="cls-9" d="M49.11,424.037v-3.846a1.282,1.282,0,1,0-2.564,0v3.846" transform="translate(-41.418 -418.909)"/>
        <path id="Path_250" data-name="Path 250" class="cls-9" d="M84.019,424.037v-3.846a1.282,1.282,0,1,0-2.564,0v3.846" transform="translate(-68.635 -418.909)"/>
        <path id="Path_251" data-name="Path 251" class="cls-9" d="M118.928,424.037v-3.846a1.282,1.282,0,1,0-2.564,0v3.846" transform="translate(-95.852 -418.909)"/>
        <path id="Path_252" data-name="Path 252" class="cls-9" d="M153.837,424.037v-3.846a1.282,1.282,0,1,0-2.564,0v3.846" transform="translate(-123.069 -418.909)"/>
        <path id="Path_253" data-name="Path 253" class="cls-9" d="M188.746,424.037v-3.846a1.282,1.282,0,1,0-2.564,0v3.846" transform="translate(-150.287 -418.909)"/>
        <path id="Path_254" data-name="Path 254" class="cls-9" d="M223.655,424.037v-3.846a1.282,1.282,0,1,0-2.564,0v3.846" transform="translate(-177.504 -418.909)"/>
      </g>
      <path id="Path_255" data-name="Path 255" class="cls-7" d="M105.517,324.438H49.11a2.422,2.422,0,0,1-2.564-2.564v-5.128a2.422,2.422,0,0,1,2.564-2.564h56.407a2.422,2.422,0,0,1,2.564,2.564v5.128A2.422,2.422,0,0,1,105.517,324.438Z" transform="translate(-36.29 -235.883)"/>
      <path id="Path_256" data-name="Path 256" class="cls-8" d="M95.26,316.746H46.545a2.422,2.422,0,0,1,2.564-2.564H95.26Z" transform="translate(-36.289 -235.883)"/>
      <g id="Group_85" data-name="Group 85" transform="translate(10.256 80.863)">
        <path id="Path_257" data-name="Path 257" class="cls-9" d="M95.26,325.817v2.564a2.422,2.422,0,0,1-2.564,2.564H46.545a2.422,2.422,0,0,0,2.564,2.564h56.407a2.422,2.422,0,0,0,2.564-2.564v-5.128H95.26Z" transform="translate(-46.545 -325.817)"/>
        <path id="Path_258" data-name="Path 258" class="cls-9" d="M72.383,330.946V327.1a1.282,1.282,0,1,0-2.564,0v3.846" transform="translate(-64.691 -325.818)"/>
        <path id="Path_259" data-name="Path 259" class="cls-9" d="M107.292,330.946V327.1a1.282,1.282,0,1,0-2.564,0v3.846" transform="translate(-91.908 -325.818)"/>
        <path id="Path_260" data-name="Path 260" class="cls-9" d="M142.2,330.946V327.1a1.282,1.282,0,1,0-2.564,0v3.846" transform="translate(-119.125 -325.818)"/>
        <path id="Path_261" data-name="Path 261" class="cls-9" d="M177.11,330.946V327.1a1.282,1.282,0,1,0-2.564,0v3.846" transform="translate(-146.342 -325.818)"/>
        <path id="Path_262" data-name="Path 262" class="cls-9" d="M212.019,330.946V327.1a1.282,1.282,0,1,0-2.564,0v3.846" transform="translate(-173.559 -325.818)"/>
        <path id="Path_263" data-name="Path 263" class="cls-9" d="M246.928,330.946V327.1a1.282,1.282,0,1,0-2.564,0v3.846" transform="translate(-200.776 -325.818)"/>
      </g>
      <path id="Path_264" data-name="Path 264" class="cls-7" d="M82.244,277.893H25.837a2.422,2.422,0,0,1-2.564-2.564V270.2a2.422,2.422,0,0,1,2.564-2.564H82.244a2.422,2.422,0,0,1,2.564,2.564v5.128A2.422,2.422,0,0,1,82.244,277.893Z" transform="translate(-18.145 -199.594)"/>
      <path id="Path_265" data-name="Path 265" class="cls-8" d="M71.988,270.2H23.273a2.422,2.422,0,0,1,2.564-2.564H71.988Z" transform="translate(-18.145 -199.594)"/>
      <g id="Group_86" data-name="Group 86" transform="translate(5.128 70.607)">
        <path id="Path_266" data-name="Path 266" class="cls-9" d="M71.988,279.272v2.564a2.422,2.422,0,0,1-2.564,2.564H23.273a2.422,2.422,0,0,0,2.564,2.564H82.244a2.422,2.422,0,0,0,2.564-2.564v-5.128H71.988Z" transform="translate(-23.273 -279.272)"/>
        <path id="Path_267" data-name="Path 267" class="cls-9" d="M49.11,284.4v-3.846a1.282,1.282,0,1,0-2.564,0V284.4" transform="translate(-41.418 -279.272)"/>
        <path id="Path_268" data-name="Path 268" class="cls-9" d="M84.019,284.4v-3.846a1.282,1.282,0,1,0-2.564,0V284.4" transform="translate(-68.635 -279.272)"/>
        <path id="Path_269" data-name="Path 269" class="cls-9" d="M118.928,284.4v-3.846a1.282,1.282,0,1,0-2.564,0V284.4" transform="translate(-95.852 -279.272)"/>
        <path id="Path_270" data-name="Path 270" class="cls-9" d="M153.837,284.4v-3.846a1.282,1.282,0,1,0-2.564,0V284.4" transform="translate(-123.069 -279.272)"/>
        <path id="Path_271" data-name="Path 271" class="cls-9" d="M188.746,284.4v-3.846a1.282,1.282,0,1,0-2.564,0V284.4" transform="translate(-150.287 -279.272)"/>
        <path id="Path_272" data-name="Path 272" class="cls-9" d="M223.655,284.4v-3.846a1.282,1.282,0,1,0-2.564,0V284.4" transform="translate(-177.504 -279.272)"/>
      </g>
      <path id="Path_273" data-name="Path 273" class="cls-7" d="M58.971,370.983H2.564A2.422,2.422,0,0,1,0,368.419v-5.128a2.422,2.422,0,0,1,2.564-2.564H58.971a2.422,2.422,0,0,1,2.564,2.564v5.128A2.422,2.422,0,0,1,58.971,370.983Z" transform="translate(0 -272.172)"/>
      <path id="Path_274" data-name="Path 274" class="cls-8" d="M48.715,363.292H0a2.422,2.422,0,0,1,2.564-2.564H48.715Z" transform="translate(0 -272.173)"/>
      <g id="Group_87" data-name="Group 87" transform="translate(0 91.119)">
        <path id="Path_275" data-name="Path 275" class="cls-9" d="M48.715,372.363v2.564a2.422,2.422,0,0,1-2.564,2.564H0a2.422,2.422,0,0,0,2.564,2.564H58.971a2.422,2.422,0,0,0,2.564-2.564v-5.128H48.715Z" transform="translate(0 -372.363)"/>
        <path id="Path_276" data-name="Path 276" class="cls-9" d="M25.837,377.491v-3.846a1.282,1.282,0,0,0-2.564,0v3.846" transform="translate(-18.145 -372.363)"/>
        <path id="Path_277" data-name="Path 277" class="cls-9" d="M60.746,377.491v-3.846a1.282,1.282,0,0,0-2.564,0v3.846" transform="translate(-45.362 -372.363)"/>
        <path id="Path_278" data-name="Path 278" class="cls-9" d="M95.655,377.491v-3.846a1.282,1.282,0,0,0-2.564,0v3.846" transform="translate(-72.579 -372.363)"/>
        <path id="Path_279" data-name="Path 279" class="cls-9" d="M130.564,377.491v-3.846a1.282,1.282,0,0,0-2.564,0v3.846" transform="translate(-99.796 -372.363)"/>
        <path id="Path_280" data-name="Path 280" class="cls-9" d="M165.473,377.491v-3.846a1.282,1.282,0,0,0-2.564,0v3.846" transform="translate(-127.014 -372.363)"/>
        <path id="Path_281" data-name="Path 281" class="cls-9" d="M200.383,377.491v-3.846a1.282,1.282,0,0,0-2.564,0v3.846" transform="translate(-154.231 -372.363)"/>
      </g>
      <path id="Path_282" data-name="Path 282" class="cls-10" d="M162.12,102.657A12.291,12.291,0,0,1,156.992,92.4a58.587,58.587,0,0,0-17.179-41.536L128.788,39.84V32.148l8.974-11.281a6.125,6.125,0,0,0,1.282-3.59,5.691,5.691,0,0,0-5.641-5.641h-9.743L121.1,16.764l-5.128-5.128H103.662a5.691,5.691,0,0,0-5.641,5.641,6.126,6.126,0,0,0,1.282,3.59l8.974,11.281V39.84L97.252,50.865A58.588,58.588,0,0,0,80.073,92.4h0a12.29,12.29,0,0,1-5.128,10.256,12.29,12.29,0,0,0-5.128,10.256h0a6.348,6.348,0,0,0,6.41,6.41h84.611a6.348,6.348,0,0,0,6.41-6.41h0A12.29,12.29,0,0,0,162.12,102.657Z" transform="translate(-54.433)"/>
      <path id="Path_283" data-name="Path 283" class="cls-11" d="M163.028,102.657A13.113,13.113,0,0,1,157.9,92.145c.256-16.153-7.179-31.28-18.461-42.818L129.7,39.84V32.148l8.974-11.281a5.756,5.756,0,0,0,.513-6.666,5.7,5.7,0,0,0-5.128-2.564c-1.795,0-2.82,2.051-2.308,3.59a4.829,4.829,0,0,1,.513,2.051,6.126,6.126,0,0,1-1.282,3.59L122,32.148V39.84h-12.82L106.621,42.4h17.948l9.487,9.487C144.568,62.4,148.67,76.761,147.644,91.375a12.83,12.83,0,0,0,4.872,11.025c.256.256.513.513.769.513,3.846,4.1.513,11.025-5.384,11.025H70.982a6.329,6.329,0,0,0,6.153,5.128h84.611a6.347,6.347,0,0,0,6.41-6.41v-.513A11.919,11.919,0,0,0,163.028,102.657Z" transform="translate(-55.342 0)"/>
      <path id="Path_284" data-name="Path 284" class="cls-8" d="M248.012,112.418H224.936a3.943,3.943,0,0,1-3.846-3.846h0a3.943,3.943,0,0,1,3.846-3.846h23.076a3.943,3.943,0,0,1,3.846,3.846h0A3.943,3.943,0,0,1,248.012,112.418Z" transform="translate(-172.375 -72.578)"/>
      <path id="Path_285" data-name="Path 285" class="cls-12" d="M234.009,104.727h12.82a1.211,1.211,0,0,1,1.282,1.282h0a1.211,1.211,0,0,1-1.282,1.282h-12.82a1.211,1.211,0,0,1-1.282-1.282h0A1.211,1.211,0,0,1,234.009,104.727Z" transform="translate(-181.448 -72.579)"/>
      <path id="Path_286" data-name="Path 286" class="cls-7" d="M248.92,104.727h-1.282v2.564a2.422,2.422,0,0,1-2.564,2.564H222.255a3.856,3.856,0,0,0,3.59,2.564H248.92a3.846,3.846,0,1,0,0-7.692Z" transform="translate(-173.283 -72.579)"/>
      <path id="Path_287" data-name="Path 287" class="cls-9" d="M303.828,128h7.692a1.211,1.211,0,0,1,1.282,1.282h0a1.211,1.211,0,0,1-1.282,1.282h-7.692a1.211,1.211,0,0,1-1.282-1.282h0A1.211,1.211,0,0,1,303.828,128Z" transform="translate(-235.883 -90.724)"/>
      <rect id="Rectangle_76" data-name="Rectangle 76" class="cls-7" width="5.128" height="20.512" transform="translate(61.535 39.84)"/>
      <path id="Path_288" data-name="Path 288" class="cls-9" d="M279.273,139.636V142.2h2.564v17.948H284.4V139.636Z" transform="translate(-217.738 -99.796)"/>
      <circle id="Ellipse_31" data-name="Ellipse 31" class="cls-7" cx="20.512" cy="20.512" r="20.512" transform="translate(43.587 57.787)"/>
      <path id="Path_289" data-name="Path 289" class="cls-11" d="M260.28,254.836a19.611,19.611,0,0,1,4.872,13.076,20.572,20.572,0,0,1-20.512,20.512,19.61,19.61,0,0,1-13.076-4.872,20.345,20.345,0,0,0,15.64,7.435,20.572,20.572,0,0,0,20.512-20.512A19.584,19.584,0,0,0,260.28,254.836Z" transform="translate(-180.541 -189.613)"/>
      <circle id="Ellipse_32" data-name="Ellipse 32" class="cls-8" cx="17.948" cy="17.948" r="17.948" transform="translate(46.151 60.351)"/>
      <path id="Path_290" data-name="Path 290" class="cls-9" d="M308.857,314.182a17.837,17.837,0,0,1-17.948,17.948v2.564a20.572,20.572,0,0,0,20.512-20.512Z" transform="translate(-226.81 -235.883)"/>
      <path id="Path_291" data-name="Path 291" class="cls-13" d="M218.33,223.655v-2.564A20.572,20.572,0,0,0,197.818,241.6h2.564A17.838,17.838,0,0,1,218.33,223.655Z" transform="translate(-154.231 -163.304)"/>
      <path id="Path_292" data-name="Path 292" class="cls-14" d="M257.184,257.184h-5.128a2.564,2.564,0,1,1,0-5.128h7.692a2.564,2.564,0,1,0,0-5.128h-2.564a2.564,2.564,0,0,0-5.128,0h0a7.692,7.692,0,0,0,0,15.384h5.128a2.564,2.564,0,1,1,0,5.128h-7.692a2.564,2.564,0,0,0,0,5.128h2.564a2.564,2.564,0,0,0,5.128,0h0a7.692,7.692,0,0,0,0-15.384Z" transform="translate(-190.521 -181.449)"/>
    </g>
    <g id="_016-money" data-name="016-money" transform="translate(6394.955 76.843)">
      <path id="Path_293" data-name="Path 293" class="cls-15" d="M76.408,70.572H3.639A3.649,3.649,0,0,1,0,66.934V26.911a3.649,3.649,0,0,1,3.639-3.639H76.408a3.649,3.649,0,0,1,3.638,3.639V66.934A3.649,3.649,0,0,1,76.408,70.572Z"/>
      <path id="Path_294" data-name="Path 294" class="cls-16" d="M274.453,232.727A12.176,12.176,0,0,0,264.265,238a13.57,13.57,0,0,0-6.185-1.637,12.729,12.729,0,0,0-12.553,10.915h38.022a3.7,3.7,0,0,0,3.638-3.093A12.959,12.959,0,0,0,274.453,232.727Z" transform="translate(-207.141 -176.709)"/>
      <path id="Path_295" data-name="Path 295" class="cls-17" d="M88.765,86.569H30.55a7.3,7.3,0,0,0-7.277-7.277V53.823a7.3,7.3,0,0,0,7.277-7.277H88.765a7.3,7.3,0,0,0,7.277,7.277V79.292A7.3,7.3,0,0,0,88.765,86.569Z" transform="translate(-19.634 -19.635)"/>
      <g id="Group_88" data-name="Group 88" transform="translate(14.554 30.549)">
        <path id="Path_296" data-name="Path 296" class="cls-15" d="M280.343,232.727A12.176,12.176,0,0,0,270.155,238a13.57,13.57,0,0,0-6.185-1.637,12.5,12.5,0,0,0-11.461,7.277h29.654a7.26,7.26,0,0,1,7.095-7.277A13.151,13.151,0,0,0,280.343,232.727Z" transform="translate(-227.586 -207.258)"/>
        <ellipse id="Ellipse_33" data-name="Ellipse 33" class="cls-15" cx="14.554" cy="16.373" rx="14.554" ry="16.373" transform="translate(10.915)"/>
        <circle id="Ellipse_34" data-name="Ellipse 34" class="cls-15" cx="3.639" cy="3.639" r="3.639" transform="translate(0 12.735)"/>
        <circle id="Ellipse_35" data-name="Ellipse 35" class="cls-15" cx="3.639" cy="3.639" r="3.639" transform="translate(43.661 12.735)"/>
      </g>
      <path id="Path_297" data-name="Path 297" class="cls-18" d="M218.551,113.825h-3.639a1.819,1.819,0,0,1,0-3.638h5.458a1.819,1.819,0,1,0,0-3.638h-1.819a1.819,1.819,0,0,0-3.638,0,5.458,5.458,0,0,0,0,10.915h3.639a1.819,1.819,0,0,1,0,3.638h-5.458a1.819,1.819,0,1,0,0,3.638h1.819a1.819,1.819,0,0,0,3.638,0,5.458,5.458,0,0,0,0-10.915Z" transform="translate(-176.709 -68.722)"/>
      <circle id="Ellipse_36" data-name="Ellipse 36" class="cls-19" cx="12.735" cy="12.735" r="12.735" transform="translate(34.565 59.657)"/>
      <circle id="Ellipse_37" data-name="Ellipse 37" class="cls-7" cx="12.735" cy="12.735" r="12.735" transform="translate(50.938 56.018)"/>
      <path id="Path_298" data-name="Path 298" class="cls-8" d="M338.553,232.727a12.735,12.735,0,1,0,12.735,12.735A12.656,12.656,0,0,0,338.553,232.727Zm0,21.831a9.1,9.1,0,1,1,9.1-9.1A9.008,9.008,0,0,1,338.553,254.558Z" transform="translate(-274.88 -176.709)"/>
      <path id="Path_299" data-name="Path 299" class="cls-7" d="M407.273,326.735h0a12.5,12.5,0,0,0,12.735-12.553h-.182a1.935,1.935,0,0,0-1.819,1.637,11,11,0,0,1-3.457,6.549,10.307,10.307,0,0,1-5.64,2.729A1.631,1.631,0,0,0,407.273,326.735Z" transform="translate(-343.6 -245.429)"/>
      <path id="Path_300" data-name="Path 300" class="cls-13" d="M338.553,233.869h0a12.5,12.5,0,0,0-12.735,12.553H326a1.934,1.934,0,0,0,1.819-1.637,11,11,0,0,1,3.457-6.549,10.309,10.309,0,0,1,5.64-2.729A1.63,1.63,0,0,0,338.553,233.869Z" transform="translate(-274.88 -177.668)"/>
      <path id="Path_301" data-name="Path 301" class="cls-9" d="M350.364,266.37a9.008,9.008,0,0,1,9.1-9.1,8.581,8.581,0,0,1,5.821,2.183,9.068,9.068,0,0,0-16.191,5.64,8.722,8.722,0,0,0,3.275,6.913A8.532,8.532,0,0,1,350.364,266.37Z" transform="translate(-294.514 -196.343)"/>
      <path id="Path_302" data-name="Path 302" class="cls-8" d="M437.764,314.913a.668.668,0,0,1-.546-.182.879.879,0,0,1,0-1.273,6.071,6.071,0,0,0,1.637-4.184.91.91,0,1,1,1.819,0,8.4,8.4,0,0,1-2,5.458A1.978,1.978,0,0,1,437.764,314.913Z" transform="translate(-368.634 -240.521)"/>
      <g id="Group_89" data-name="Group 89" transform="translate(51.12 59.657)">
        <path id="Path_303" data-name="Path 303" class="cls-9" d="M397.456,290.189a1.719,1.719,0,0,1-1.819-1.819v-7.277a1.819,1.819,0,1,1,3.638,0v7.277A1.719,1.719,0,0,1,397.456,290.189Z" transform="translate(-384.903 -275.635)"/>
        <path id="Path_304" data-name="Path 304" class="cls-9" d="M346.265,275.83a14.781,14.781,0,0,0-8.732-9.824A15.209,15.209,0,0,0,330.62,256a13.151,13.151,0,0,0-3.638,8.914,12.656,12.656,0,0,0,12.735,12.735A10.55,10.55,0,0,0,346.265,275.83Z" transform="translate(-326.981 -256)"/>
      </g>
      <g id="Group_90" data-name="Group 90" transform="translate(54.577 62.022)">
        <path id="Path_305" data-name="Path 305" class="cls-14" d="M352.365,284.772a9.57,9.57,0,0,1-2.183-5.821,8.807,8.807,0,0,1,2.911-6.549A7.91,7.91,0,0,0,352,271.128a8.913,8.913,0,0,0-2.911,6.731A8.722,8.722,0,0,0,352.365,284.772Z" transform="translate(-349.09 -271.128)"/>
        <path id="Path_306" data-name="Path 306" class="cls-14" d="M395.636,321.164v2.547a1.819,1.819,0,1,0,3.638,0v-.364A14.866,14.866,0,0,0,395.636,321.164Z" transform="translate(-388.359 -313.341)"/>
      </g>
      <path id="Path_307" data-name="Path 307" class="cls-7" d="M345.284,276.81a11.628,11.628,0,0,0-1.455-3.457,8.8,8.8,0,0,1-5.276,1.819,9.008,9.008,0,0,1-9.1-9.1,8.913,8.913,0,0,1,2.911-6.731,11.1,11.1,0,0,0-2.911-2.183,13.151,13.151,0,0,0-3.639,8.914,12.656,12.656,0,0,0,12.735,12.735A12.2,12.2,0,0,0,345.284,276.81Z" transform="translate(-274.88 -197.324)"/>
      <path id="Path_308" data-name="Path 308" class="cls-9" d="M413.457,372.364a12.574,12.574,0,0,1-4.548,1.819A1.935,1.935,0,0,0,407.272,376h0A12.2,12.2,0,0,0,414,374Z" transform="translate(-343.599 -294.515)"/>
      <path id="Path_309" data-name="Path 309" class="cls-8" d="M329.457,257.164a13.151,13.151,0,0,0-3.639,8.914H326a1.934,1.934,0,0,0,1.819-1.637,11.32,11.32,0,0,1,3.275-6.367A7.382,7.382,0,0,1,329.457,257.164Z" transform="translate(-274.88 -197.325)"/>
      <circle id="Ellipse_38" data-name="Ellipse 38" class="cls-7" cx="12.735" cy="12.735" r="12.735" transform="translate(34.565 59.657)"/>
      <path id="Path_310" data-name="Path 310" class="cls-9" d="M290.909,326.916a12.608,12.608,0,0,0,.546,3.638h1.273a12.691,12.691,0,0,0,12.189-16.373h-1.273A12.656,12.656,0,0,0,290.909,326.916Z" transform="translate(-245.428 -245.428)"/>
      <path id="Path_311" data-name="Path 311" class="cls-8" d="M233.825,256a12.735,12.735,0,1,0,12.735,12.735A12.656,12.656,0,0,0,233.825,256Zm0,21.831a9.1,9.1,0,1,1,9.1-9.1A9.008,9.008,0,0,1,233.825,277.831Z" transform="translate(-186.525 -196.343)"/>
      <path id="Path_312" data-name="Path 312" class="cls-7" d="M302.545,350.008h0a12.5,12.5,0,0,0,12.735-12.553H315.1a1.935,1.935,0,0,0-1.819,1.637,11,11,0,0,1-3.457,6.549,10.308,10.308,0,0,1-5.64,2.729A1.63,1.63,0,0,0,302.545,350.008Z" transform="translate(-255.245 -265.064)"/>
      <path id="Path_313" data-name="Path 313" class="cls-13" d="M233.825,257.142h0a12.5,12.5,0,0,0-12.735,12.553h.182a1.934,1.934,0,0,0,1.819-1.637,11,11,0,0,1,3.457-6.549,10.308,10.308,0,0,1,5.64-2.729A1.63,1.63,0,0,0,233.825,257.142Z" transform="translate(-186.525 -197.303)"/>
      <path id="Path_314" data-name="Path 314" class="cls-9" d="M245.637,289.643a9.008,9.008,0,0,1,9.1-9.1,8.581,8.581,0,0,1,5.821,2.183,9.068,9.068,0,0,0-16.191,5.64,8.722,8.722,0,0,0,3.275,6.913A8.533,8.533,0,0,1,245.637,289.643Z" transform="translate(-206.159 -215.978)"/>
      <path id="Path_315" data-name="Path 315" class="cls-8" d="M333.037,338.185a.668.668,0,0,1-.546-.182.879.879,0,0,1,0-1.273,6.072,6.072,0,0,0,1.637-4.184.91.91,0,1,1,1.819,0,8.4,8.4,0,0,1-2,5.458A1.978,1.978,0,0,1,333.037,338.185Z" transform="translate(-280.28 -260.154)"/>
      <path id="Path_316" data-name="Path 316" class="cls-9" d="M292.728,313.462a1.719,1.719,0,0,1-1.819-1.819v-7.277a1.819,1.819,0,1,1,3.638,0v7.277A1.719,1.719,0,0,1,292.728,313.462Z" transform="translate(-245.428 -235.613)"/>
      <g id="Group_91" data-name="Group 91" transform="translate(43.661 68.753)">
        <path id="Path_317" data-name="Path 317" class="cls-7" d="M301.1,314.363a10.639,10.639,0,0,1,.728,3.457,9.008,9.008,0,0,1-9.1,9.1,6.186,6.186,0,0,1-1.819-.182v.182a12.609,12.609,0,0,0,.546,3.638h1.273a12.691,12.691,0,0,0,12.189-16.373h-1.273A12.031,12.031,0,0,0,301.1,314.363Z" transform="translate(-289.091 -314.181)"/>
        <circle id="Ellipse_39" data-name="Ellipse 39" class="cls-7" cx="12.735" cy="12.735" r="12.735" transform="translate(0 1.819)"/>
      </g>
      <path id="Path_318" data-name="Path 318" class="cls-8" d="M292.007,325.818a12.735,12.735,0,1,0,12.735,12.735A12.656,12.656,0,0,0,292.007,325.818Zm0,21.831a9.1,9.1,0,1,1,9.1-9.1A9.008,9.008,0,0,1,292.007,347.649Z" transform="translate(-235.611 -255.246)"/>
      <path id="Path_319" data-name="Path 319" class="cls-7" d="M360.727,419.826h0a12.5,12.5,0,0,0,12.735-12.553h-.182a1.935,1.935,0,0,0-1.819,1.637A11,11,0,0,1,368,415.46a10.308,10.308,0,0,1-5.64,2.729A1.63,1.63,0,0,0,360.727,419.826Z" transform="translate(-304.331 -323.966)"/>
      <path id="Path_320" data-name="Path 320" class="cls-13" d="M292.007,326.96h0a12.5,12.5,0,0,0-12.735,12.553h.182a1.935,1.935,0,0,0,1.819-1.637,11,11,0,0,1,3.456-6.549,10.308,10.308,0,0,1,5.64-2.729A1.63,1.63,0,0,0,292.007,326.96Z" transform="translate(-235.611 -256.206)"/>
      <path id="Path_321" data-name="Path 321" class="cls-9" d="M303.819,359.461a9.008,9.008,0,0,1,9.1-9.1,8.581,8.581,0,0,1,5.821,2.183,9.068,9.068,0,0,0-16.191,5.64,8.722,8.722,0,0,0,3.275,6.913A8.532,8.532,0,0,1,303.819,359.461Z" transform="translate(-255.245 -274.88)"/>
      <path id="Path_322" data-name="Path 322" class="cls-8" d="M391.218,408a.668.668,0,0,1-.546-.182.879.879,0,0,1,0-1.273,6.072,6.072,0,0,0,1.637-4.184.91.91,0,1,1,1.819,0,8.4,8.4,0,0,1-2,5.458A1.978,1.978,0,0,1,391.218,408Z" transform="translate(-329.365 -319.057)"/>
      <path id="Path_323" data-name="Path 323" class="cls-9" d="M350.91,383.279a1.719,1.719,0,0,1-1.819-1.819v-7.277a1.819,1.819,0,1,1,3.638,0v7.277A1.719,1.719,0,0,1,350.91,383.279Z" transform="translate(-294.514 -294.515)"/>
    </g>
    <g id="_021-arrows" data-name="021-arrows" transform="translate(6293.452 -10.337)">
      <path id="Path_134" data-name="Path 134" class="cls-20" d="M83.084,119.363a8.979,8.979,0,0,1-8.978,8.978H8.978A8.979,8.979,0,0,1,0,119.363V77.017a8.979,8.979,0,0,1,8.978-8.978H74.105a8.979,8.979,0,0,1,8.978,8.978Z" transform="translate(0 0)"/>
      <path id="Path_135" data-name="Path 135" class="cls-21" d="M56,68.039h64.725c4.958,0,8.978,3.484,8.978,8.442v42.078c.268,5.226-3.618,9.782-8.576,9.782" transform="translate(-46.62 0)"/>
      <path id="Path_136" data-name="Path 136" class="cls-22" d="M168,128.839v38.594l26.265-19.3Z" transform="translate(-139.859 -50.616)"/>
      <path id="Path_137" data-name="Path 137" class="cls-23" d="M168,239.239v20.1l26.265-19.3Z" transform="translate(-139.859 -142.523)"/>
      <g id="Group_68" data-name="Group 68" transform="translate(5.36 72.997)">
        <circle id="Ellipse_19" data-name="Ellipse 19" class="cls-21" cx="3.216" cy="3.216" r="3.216" transform="translate(0 0)"/>
        <circle id="Ellipse_20" data-name="Ellipse 20" class="cls-21" cx="3.216" cy="3.216" r="3.216" transform="translate(0 10.72)"/>
        <circle id="Ellipse_21" data-name="Ellipse 21" class="cls-21" cx="3.216" cy="3.216" r="3.216" transform="translate(0 21.307)"/>
        <circle id="Ellipse_22" data-name="Ellipse 22" class="cls-21" cx="3.216" cy="3.216" r="3.216" transform="translate(0 31.893)"/>
        <circle id="Ellipse_23" data-name="Ellipse 23" class="cls-21" cx="3.216" cy="3.216" r="3.216" transform="translate(0 42.614)"/>
      </g>
      <g id="Group_69" data-name="Group 69" transform="translate(71.291 72.997)">
        <circle id="Ellipse_24" data-name="Ellipse 24" class="cls-20" cx="3.216" cy="3.216" r="3.216" transform="translate(0 0)"/>
        <circle id="Ellipse_25" data-name="Ellipse 25" class="cls-20" cx="3.216" cy="3.216" r="3.216" transform="translate(0 10.72)"/>
        <circle id="Ellipse_26" data-name="Ellipse 26" class="cls-20" cx="3.216" cy="3.216" r="3.216" transform="translate(0 21.307)"/>
        <circle id="Ellipse_27" data-name="Ellipse 27" class="cls-20" cx="3.216" cy="3.216" r="3.216" transform="translate(0 31.893)"/>
        <circle id="Ellipse_28" data-name="Ellipse 28" class="cls-20" cx="3.216" cy="3.216" r="3.216" transform="translate(0 42.614)"/>
      </g>
      <path id="Path_134-2" data-name="Path 134" class="cls-24" d="M83.084,119.363a8.979,8.979,0,0,1-8.978,8.978H8.978A8.979,8.979,0,0,1,0,119.363V77.017a8.979,8.979,0,0,1,8.978-8.978H74.105a8.979,8.979,0,0,1,8.978,8.978Z" transform="translate(0 0)"/>
    </g>
  </g>
</svg>
