<svg xmlns="http://www.w3.org/2000/svg" viewBox="6563 2845 50 50">
  <defs>
    <style>
      .cls-1 {
        fill: #32a8e5;
      }
    </style>
  </defs>
  <path id="play" class="cls-1" d="M-1503.5,112.5a24.841,24.841,0,0,1-9.731-1.965,24.915,24.915,0,0,1-7.946-5.358,24.906,24.906,0,0,1-5.358-7.947,24.844,24.844,0,0,1-1.965-9.73,24.843,24.843,0,0,1,1.965-9.732,24.914,24.914,0,0,1,5.358-7.947,24.912,24.912,0,0,1,7.946-5.358A24.842,24.842,0,0,1-1503.5,62.5a24.844,24.844,0,0,1,9.732,1.965,24.918,24.918,0,0,1,7.947,5.358,24.914,24.914,0,0,1,5.358,7.947,24.845,24.845,0,0,1,1.963,9.73,24.844,24.844,0,0,1-1.965,9.731,24.908,24.908,0,0,1-5.358,7.947,24.918,24.918,0,0,1-7.947,5.358A24.844,24.844,0,0,1-1503.5,112.5Zm-4.8-35.761c-.9,0-1.442.716-1.442,1.914V96.3c0,1.2.539,1.911,1.441,1.911a2.869,2.869,0,0,0,1.559-.578l11.93-8.165a2.445,2.445,0,0,0,1.193-1.993,2.441,2.441,0,0,0-1.188-1.993l-11.924-8.163a2.929,2.929,0,0,0-1.569-.579Z" transform="translate(8091.5 2782.5)"/>
</svg>
